# Blender v2.93.6 OBJ File: 'big-screen.blend'
# www.blender.org
mtllib big-screen.mtl
o Cube_Cube.001
v -0.030000 1.324207 1.420000
v 0.030000 1.284793 1.340045
v -0.030000 1.324207 -1.420000
v 0.030000 1.284793 -1.340045
v -0.030000 -0.075793 1.420000
v 0.030000 -0.036378 1.340045
v -0.030000 -0.075793 -1.420000
v 0.030000 -0.036378 -1.340045
v 0.030000 1.324207 1.420000
v 0.030000 1.324207 -1.420000
v 0.030000 -0.075793 -1.420000
v 0.030000 -0.075793 1.420000
v -0.003629 1.284793 1.340045
v -0.003629 1.284793 -1.340045
v -0.003629 -0.036378 -1.340045
v -0.003629 -0.036378 1.340045
v -0.030000 1.184686 -1.136970
v -0.030000 1.184686 1.136970
v -0.030000 0.063729 -1.136970
v -0.030000 0.063729 1.136970
v -0.030000 1.324207 -1.420000
v -0.030000 1.324207 1.420000
v -0.030000 -0.075793 -1.420000
v -0.030000 -0.075793 1.420000
v -0.067030 1.184686 -1.136970
v -0.067030 1.184686 1.136970
v -0.067030 0.063729 -1.136970
v -0.067030 0.063729 1.136970
v -0.067030 1.184686 -1.136970
v -0.067030 1.184686 1.136970
v -0.067030 1.184686 -1.136970
v -0.067030 1.184686 1.136970
vt 0.375000 0.000000
vt 0.625000 0.000000
vt 0.625000 0.250000
vt 0.375000 0.250000
vt 0.625000 0.500000
vt 0.375000 0.500000
vt 0.625000 0.750000
vt 0.375000 0.750000
vt 0.625000 1.000000
vt 0.375000 1.000000
vt 0.375000 1.000000
vt 0.375000 0.750000
vt 0.867962 0.742962
vt 0.632038 0.742962
vt 0.632038 0.742962
vt 0.867962 0.742962
vt 0.867962 0.507038
vt 0.875000 0.500000
vt 0.875000 0.750000
vt 0.632038 0.507038
vt 0.632038 0.507038
vt 0.867962 0.507038
vt 0.350085 0.524915
vt 0.350085 0.725085
vt 0.350085 0.725085
vt 0.350085 0.524915
vt 0.375000 0.500000
vt 0.375000 0.250000
vt 0.375000 0.000000
vt 0.149915 0.524915
vt 0.149915 0.725085
vt 0.125000 0.750000
vt 0.125000 0.500000
vt 0.149915 0.524915
vt 0.149915 0.725085
vt 0.149915 0.524915
vt 0.149915 0.725085
vt 0.149915 0.524915
vt 0.149915 0.725085
vn 0.0000 1.0000 0.0000
vn 0.0000 0.0000 -1.0000
vn 0.0000 -1.0000 0.0000
vn 0.0000 0.0000 1.0000
vn 1.0000 -0.0000 0.0000
vn -1.0000 0.0000 0.0000
usemtl Material.001
s off
f 1/1/1 9/2/1 10/3/1 3/4/1
f 3/4/2 10/3/2 11/5/2 7/6/2
f 7/6/3 11/5/3 12/7/3 5/8/3
f 5/8/4 12/7/4 9/9/4 1/10/4
f 5/8/4 1/10/4 22/11/4 24/12/4
f 2/13/2 6/14/2 16/15/2 13/16/2
f 2/13/5 4/17/5 10/18/5 9/19/5
f 4/17/5 8/20/5 11/5/5 10/18/5
f 8/20/5 6/14/5 12/7/5 11/5/5
f 6/14/5 2/13/5 9/19/5 12/7/5
f 15/21/5 14/22/5 13/16/5 16/15/5
f 8/20/4 4/17/4 14/22/4 15/21/4
f 6/14/1 8/20/1 15/21/1 16/15/1
f 4/17/3 2/13/3 13/16/3 14/22/3
f 19/23/3 20/24/3 28/25/3 27/26/3
f 3/4/4 7/6/4 23/27/4 21/28/4
f 1/1/4 3/4/4 21/28/4 22/29/4
f 7/6/4 5/8/4 24/12/4 23/27/4
f 17/30/6 18/31/6 22/32/6 21/33/6
f 19/23/6 17/30/6 21/33/6 23/27/6
f 20/24/6 19/23/6 23/27/6 24/12/6
f 18/31/6 20/24/6 24/12/6 22/32/6
f 25/34/6 27/26/6 28/25/6 26/35/6
f 18/31/1 17/30/1 25/34/1 26/35/1
f 20/24/4 18/31/4 26/35/4 28/25/4
f 17/30/2 19/23/2 27/26/2 25/34/2
f 26/35/4 25/34/4 29/36/4 30/37/4
f 30/37/4 29/36/4 31/38/4 32/39/4
