{
    "asset" : {
        "generator" : "Khronos glTF Blender I/O v1.6.16",
        "version" : "2.0"
    },
    "scene" : 0,
    "scenes" : [
        {
            "name" : "Scene",
            "nodes" : [
                0,
                1,
                2,
                3,
                4
            ]
        }
    ],
    "nodes" : [
        {
            "mesh" : 0,
            "name" : "Cube",
            "rotation" : [
                -0.06279051303863525,
                0,
                0,
                0.9980267286300659
            ],
            "scale" : [
                0.75,
                1.3299999237060547,
                0.18000000715255737
            ],
            "translation" : [
                0,
                2,
                -0.35134440660476685
            ]
        },
        {
            "name" : "Light",
            "rotation" : [
                0.16907575726509094,
                0.7558803558349609,
                -0.27217137813568115,
                0.570947527885437
            ],
            "translation" : [
                4.076245307922363,
                5.903861999511719,
                -1.0621223449707031
            ]
        },
        {
            "name" : "Camera",
            "rotation" : [
                0.483536034822464,
                0.33687159419059753,
                -0.20870360732078552,
                0.7804827094078064
            ],
            "translation" : [
                7.358891487121582,
                4.958309173583984,
                6.925790786743164
            ]
        },
        {
            "mesh" : 1,
            "name" : "Torus",
            "scale" : [
                0.20000000298023224,
                0.09000000357627869,
                0.20000000298023224
            ],
            "translation" : [
                0,
                0.180814728140831,
                0.05169616639614105
            ]
        },
        {
            "mesh" : 2,
            "name" : "Torus.001",
            "scale" : [
                0.30000001192092896,
                0.14000001549720764,
                0.30000001192092896
            ],
            "translation" : [
                0,
                0.4514913558959961,
                0.05169616639614105
            ]
        }
    ],
    "materials" : [
        {
            "doubleSided" : true,
            "name" : "Material",
            "pbrMetallicRoughness" : {
                "baseColorFactor" : [
                    0.01466942299157381,
                    0.01466942299157381,
                    0.01466942299157381,
                    1
                ],
                "metallicFactor" : 0,
                "roughnessFactor" : 0.4000000059604645
            }
        },
        {
            "doubleSided" : true,
            "name" : "Material.001",
            "pbrMetallicRoughness" : {
                "baseColorFactor" : [
                    0,
                    0.44377875328063965,
                    1,
                    1
                ],
                "metallicFactor" : 0
            }
        },
        {
            "doubleSided" : true,
            "name" : "Material.002",
            "pbrMetallicRoughness" : {
                "baseColorFactor" : [
                    0,
                    0.5693813562393188,
                    1,
                    1
                ],
                "metallicFactor" : 0.4485294222831726,
                "roughnessFactor" : 0
            }
        },
        {
            "doubleSided" : true,
            "name" : "Material.003",
            "pbrMetallicRoughness" : {
                "baseColorFactor" : [
                    0,
                    0.6575483679771423,
                    1,
                    1
                ],
                "metallicFactor" : 0.43382352590560913,
                "roughnessFactor" : 0
            }
        }
    ],
    "meshes" : [
        {
            "name" : "Cube",
            "primitives" : [
                {
                    "attributes" : {
                        "POSITION" : 0,
                        "NORMAL" : 1,
                        "TEXCOORD_0" : 2
                    },
                    "indices" : 3,
                    "material" : 0
                },
                {
                    "attributes" : {
                        "POSITION" : 4,
                        "NORMAL" : 5,
                        "TEXCOORD_0" : 6
                    },
                    "indices" : 7,
                    "material" : 1
                }
            ]
        },
        {
            "name" : "Torus",
            "primitives" : [
                {
                    "attributes" : {
                        "POSITION" : 8,
                        "NORMAL" : 9,
                        "TEXCOORD_0" : 10
                    },
                    "indices" : 11,
                    "material" : 2
                }
            ]
        },
        {
            "name" : "Torus.001",
            "primitives" : [
                {
                    "attributes" : {
                        "POSITION" : 12,
                        "NORMAL" : 13,
                        "TEXCOORD_0" : 14
                    },
                    "indices" : 11,
                    "material" : 3
                }
            ]
        }
    ],
    "accessors" : [
        {
            "bufferView" : 0,
            "componentType" : 5126,
            "count" : 1318,
            "max" : [
                1.2000000476837158,
                1.3827002048492432,
                5.4262285232543945
            ],
            "min" : [
                -1.2000000476837158,
                -1,
                -1.1798356771469116
            ],
            "type" : "VEC3"
        },
        {
            "bufferView" : 1,
            "componentType" : 5126,
            "count" : 1318,
            "type" : "VEC3"
        },
        {
            "bufferView" : 2,
            "componentType" : 5126,
            "count" : 1318,
            "type" : "VEC2"
        },
        {
            "bufferView" : 3,
            "componentType" : 5123,
            "count" : 2772,
            "type" : "SCALAR"
        },
        {
            "bufferView" : 4,
            "componentType" : 5126,
            "count" : 235,
            "max" : [
                1.1700000762939453,
                1.3244041204452515,
                5.17765998840332
            ],
            "min" : [
                -1.1700000762939453,
                -0.8753775358200073,
                -1.1798356771469116
            ],
            "type" : "VEC3"
        },
        {
            "bufferView" : 5,
            "componentType" : 5126,
            "count" : 235,
            "type" : "VEC3"
        },
        {
            "bufferView" : 6,
            "componentType" : 5126,
            "count" : 235,
            "type" : "VEC2"
        },
        {
            "bufferView" : 7,
            "componentType" : 5123,
            "count" : 492,
            "type" : "SCALAR"
        },
        {
            "bufferView" : 8,
            "componentType" : 5126,
            "count" : 2304,
            "max" : [
                1.25,
                0.25,
                1.25
            ],
            "min" : [
                -1.25,
                -0.25,
                -1.25
            ],
            "type" : "VEC3"
        },
        {
            "bufferView" : 9,
            "componentType" : 5126,
            "count" : 2304,
            "type" : "VEC3"
        },
        {
            "bufferView" : 10,
            "componentType" : 5126,
            "count" : 2304,
            "type" : "VEC2"
        },
        {
            "bufferView" : 11,
            "componentType" : 5123,
            "count" : 3456,
            "type" : "SCALAR"
        },
        {
            "bufferView" : 12,
            "componentType" : 5126,
            "count" : 2304,
            "max" : [
                1.25,
                0.25,
                1.25
            ],
            "min" : [
                -1.25,
                -0.25,
                -1.25
            ],
            "type" : "VEC3"
        },
        {
            "bufferView" : 13,
            "componentType" : 5126,
            "count" : 2304,
            "type" : "VEC3"
        },
        {
            "bufferView" : 14,
            "componentType" : 5126,
            "count" : 2304,
            "type" : "VEC2"
        }
    ],
    "bufferViews" : [
        {
            "buffer" : 0,
            "byteLength" : 15816,
            "byteOffset" : 0
        },
        {
            "buffer" : 0,
            "byteLength" : 15816,
            "byteOffset" : 15816
        },
        {
            "buffer" : 0,
            "byteLength" : 10544,
            "byteOffset" : 31632
        },
        {
            "buffer" : 0,
            "byteLength" : 5544,
            "byteOffset" : 42176
        },
        {
            "buffer" : 0,
            "byteLength" : 2820,
            "byteOffset" : 47720
        },
        {
            "buffer" : 0,
            "byteLength" : 2820,
            "byteOffset" : 50540
        },
        {
            "buffer" : 0,
            "byteLength" : 1880,
            "byteOffset" : 53360
        },
        {
            "buffer" : 0,
            "byteLength" : 984,
            "byteOffset" : 55240
        },
        {
            "buffer" : 0,
            "byteLength" : 27648,
            "byteOffset" : 56224
        },
        {
            "buffer" : 0,
            "byteLength" : 27648,
            "byteOffset" : 83872
        },
        {
            "buffer" : 0,
            "byteLength" : 18432,
            "byteOffset" : 111520
        },
        {
            "buffer" : 0,
            "byteLength" : 6912,
            "byteOffset" : 129952
        },
        {
            "buffer" : 0,
            "byteLength" : 27648,
            "byteOffset" : 136864
        },
        {
            "buffer" : 0,
            "byteLength" : 27648,
            "byteOffset" : 164512
        },
        {
            "buffer" : 0,
            "byteLength" : 18432,
            "byteOffset" : 192160
        }
    ],
    "buffers" : [
        {
            "byteLength" : 210592,
            "uri" : "data:application/octet-stream;base64,"
        }
    ]
}
