{
    "asset" : {
        "generator" : "Khronos glTF Blender I/O v1.7.33",
        "version" : "2.0"
    },
    "scene" : 0,
    "scenes" : [
        {
            "name" : "Scene",
            "nodes" : [
                0,
                1,
                2
            ]
        }
    ],
    "nodes" : [
        {
            "mesh" : 0,
            "name" : "Cube.010",
            "scale" : [
                0.27922114729881287,
                0.27922114729881287,
                0.27922114729881287
            ]
        },
        {
            "mesh" : 1,
            "name" : "Circle",
            "rotation" : [
                0.7071068286895752,
                0,
                0,
                0.7071068286895752
            ],
            "scale" : [
                0.34945905208587646,
                0.34945905208587646,
                0.34945905208587646
            ],
            "translation" : [
                1.9748002290725708,
                -0.10769765824079514,
                -1.8272650241851807
            ]
        },
        {
            "mesh" : 2,
            "name" : "Circle.001",
            "rotation" : [
                0.7071068286895752,
                0,
                0,
                0.7071068286895752
            ],
            "scale" : [
                0.34945905208587646,
                0.34945905208587646,
                0.34945905208587646
            ],
            "translation" : [
                -1.9645366668701172,
                -0.10769765824079514,
                -1.8272650241851807
            ]
        }
    ],
    "materials" : [
        {
            "doubleSided" : true,
            "name" : "Material.002",
            "pbrMetallicRoughness" : {
                "baseColorFactor" : [
                    0.005332776810973883,
                    0.005332776810973883,
                    0.005332776810973883,
                    1
                ],
                "metallicFactor" : 0.11363636702299118,
                "roughnessFactor" : 0.7954545021057129
            }
        },
        {
            "doubleSided" : true,
            "emissiveFactor" : [
                0.028562683370964237,
                0.17648360540250252,
                0.45900116159688764
            ],
            "name" : "Material.001",
            "pbrMetallicRoughness" : {
                "baseColorFactor" : [
                    0,
                    0.2682955861091614,
                    0.8000000715255737,
                    1
                ],
                "metallicFactor" : 0.43382352590560913,
                "roughnessFactor" : 0.45588234066963196
            }
        }
    ],
    "meshes" : [
        {
            "name" : "Cube.003",
            "primitives" : [
                {
                    "attributes" : {
                        "POSITION" : 0,
                        "NORMAL" : 1,
                        "TEXCOORD_0" : 2
                    },
                    "indices" : 3,
                    "material" : 0
                },
                {
                    "attributes" : {
                        "POSITION" : 4,
                        "NORMAL" : 5,
                        "TEXCOORD_0" : 6
                    },
                    "indices" : 7,
                    "material" : 1
                }
            ]
        },
        {
            "name" : "Circle",
            "primitives" : [
                {
                    "attributes" : {
                        "POSITION" : 8,
                        "NORMAL" : 9,
                        "TEXCOORD_0" : 10
                    },
                    "indices" : 11,
                    "material" : 1
                }
            ]
        },
        {
            "name" : "Circle.001",
            "primitives" : [
                {
                    "attributes" : {
                        "POSITION" : 12,
                        "NORMAL" : 13,
                        "TEXCOORD_0" : 14
                    },
                    "indices" : 11,
                    "material" : 1
                }
            ]
        }
    ],
    "accessors" : [
        {
            "bufferView" : 0,
            "componentType" : 5126,
            "count" : 643,
            "max" : [
                8.261363983154297,
                2.292639970779419,
                1.5495891571044922
            ],
            "min" : [
                -8.261363983154297,
                -1,
                -6.921491622924805
            ],
            "type" : "VEC3"
        },
        {
            "bufferView" : 1,
            "componentType" : 5126,
            "count" : 643,
            "type" : "VEC3"
        },
        {
            "bufferView" : 2,
            "componentType" : 5126,
            "count" : 643,
            "type" : "VEC2"
        },
        {
            "bufferView" : 3,
            "componentType" : 5123,
            "count" : 1776,
            "type" : "SCALAR"
        },
        {
            "bufferView" : 4,
            "componentType" : 5126,
            "count" : 120,
            "max" : [
                8.261363983154297,
                1,
                -0.939763069152832
            ],
            "min" : [
                -8.261363983154297,
                -0.8962624073028564,
                -6.921491622924805
            ],
            "type" : "VEC3"
        },
        {
            "bufferView" : 5,
            "componentType" : 5126,
            "count" : 120,
            "type" : "VEC3"
        },
        {
            "bufferView" : 6,
            "componentType" : 5126,
            "count" : 120,
            "type" : "VEC2"
        },
        {
            "bufferView" : 7,
            "componentType" : 5123,
            "count" : 192,
            "type" : "SCALAR"
        },
        {
            "bufferView" : 8,
            "componentType" : 5126,
            "count" : 18,
            "max" : [
                0.8632183074951172,
                -0.002541925525292754,
                0.4850587248802185
            ],
            "min" : [
                -0.868832528591156,
                -0.05997172370553017,
                -1.0149413347244263
            ],
            "type" : "VEC3"
        },
        {
            "bufferView" : 9,
            "componentType" : 5126,
            "count" : 18,
            "type" : "VEC3"
        },
        {
            "bufferView" : 10,
            "componentType" : 5126,
            "count" : 18,
            "type" : "VEC2"
        },
        {
            "bufferView" : 11,
            "componentType" : 5123,
            "count" : 24,
            "type" : "SCALAR"
        },
        {
            "bufferView" : 12,
            "componentType" : 5126,
            "count" : 18,
            "max" : [
                0.8632183074951172,
                -0.002541925525292754,
                0.4850587248802185
            ],
            "min" : [
                -0.868832528591156,
                -0.05997172370553017,
                -1.0149413347244263
            ],
            "type" : "VEC3"
        },
        {
            "bufferView" : 13,
            "componentType" : 5126,
            "count" : 18,
            "type" : "VEC3"
        },
        {
            "bufferView" : 14,
            "componentType" : 5126,
            "count" : 18,
            "type" : "VEC2"
        }
    ],
    "bufferViews" : [
        {
            "buffer" : 0,
            "byteLength" : 7716,
            "byteOffset" : 0
        },
        {
            "buffer" : 0,
            "byteLength" : 7716,
            "byteOffset" : 7716
        },
        {
            "buffer" : 0,
            "byteLength" : 5144,
            "byteOffset" : 15432
        },
        {
            "buffer" : 0,
            "byteLength" : 3552,
            "byteOffset" : 20576
        },
        {
            "buffer" : 0,
            "byteLength" : 1440,
            "byteOffset" : 24128
        },
        {
            "buffer" : 0,
            "byteLength" : 1440,
            "byteOffset" : 25568
        },
        {
            "buffer" : 0,
            "byteLength" : 960,
            "byteOffset" : 27008
        },
        {
            "buffer" : 0,
            "byteLength" : 384,
            "byteOffset" : 27968
        },
        {
            "buffer" : 0,
            "byteLength" : 216,
            "byteOffset" : 28352
        },
        {
            "buffer" : 0,
            "byteLength" : 216,
            "byteOffset" : 28568
        },
        {
            "buffer" : 0,
            "byteLength" : 144,
            "byteOffset" : 28784
        },
        {
            "buffer" : 0,
            "byteLength" : 48,
            "byteOffset" : 28928
        },
        {
            "buffer" : 0,
            "byteLength" : 216,
            "byteOffset" : 28976
        },
        {
            "buffer" : 0,
            "byteLength" : 216,
            "byteOffset" : 29192
        },
        {
            "buffer" : 0,
            "byteLength" : 144,
            "byteOffset" : 29408
        }
    ],
    "buffers" : [
        {
            "byteLength" : 29552,
            "uri" : "data:application/octet-stream;base64,"
        }
    ]
}
