{
    "asset" : {
        "generator" : "Khronos glTF Blender I/O v1.7.33",
        "version" : "2.0"
    },
    "extensionsUsed" : [
        "KHR_materials_unlit"
    ],
    "scene" : 0,
    "scenes" : [
        {
            "name" : "Scene",
            "nodes" : [
                0,
                1,
                2
            ]
        }
    ],
    "nodes" : [
        {
            "mesh" : 0,
            "name" : "Cube.010",
            "scale" : [
                0.27922114729881287,
                0.27922114729881287,
                0.27922114729881287
            ]
        },
        {
            "mesh" : 1,
            "name" : "Circle",
            "rotation" : [
                0.7071068286895752,
                0,
                0,
                0.7071068286895752
            ],
            "scale" : [
                0.34945905208587646,
                0.34945905208587646,
                0.34945905208587646
            ],
            "translation" : [
                1.9748002290725708,
                -0.10769765824079514,
                -1.8272650241851807
            ]
        },
        {
            "mesh" : 2,
            "name" : "Circle.001",
            "rotation" : [
                0.7071068286895752,
                0,
                0,
                0.7071068286895752
            ],
            "scale" : [
                0.34945905208587646,
                0.34945905208587646,
                0.34945905208587646
            ],
            "translation" : [
                -1.9645366668701172,
                -0.10769765824079514,
                -1.8272650241851807
            ]
        }
    ],
    "materials" : [
        {
            "doubleSided" : true,
            "name" : "desk",
            "pbrMetallicRoughness" : {
                "baseColorFactor" : [
                    0.01954399235546589,
                    0.01954399235546589,
                    0.01954399235546589,
                    1
                ],
                "metallicFactor" : 0.39772728085517883,
                "roughnessFactor" : 0.11363636702299118
            }
        },
        {
            "doubleSided" : true,
            "emissiveFactor" : [
                0.006156930234283209,
                0.3928397297859192,
                1
            ],
            "name" : "deskglow",
            "pbrMetallicRoughness" : {
                "baseColorFactor" : [
                    0.023105980828404427,
                    0.5115244388580322,
                    0.8000000715255737,
                    1
                ],
                "metallicFactor" : 0.6820809245109558,
                "roughnessFactor" : 0.15028902888298035
            }
        },
        {
            "doubleSided" : true,
            "extensions" : {
                "KHR_materials_unlit" : {}
            },
            "name" : "map.002",
            "pbrMetallicRoughness" : {
                "baseColorTexture" : {
                    "index" : 0
                },
                "metallicFactor" : 0,
                "roughnessFactor" : 0.9
            }
        },
        {
            "doubleSided" : true,
            "name" : "bars",
            "pbrMetallicRoughness" : {
                "baseColorTexture" : {
                    "index" : 1
                },
                "metallicFactor" : 0,
                "roughnessFactor" : 0.5
            }
        },
        {
            "doubleSided" : true,
            "name" : "keyboard",
            "pbrMetallicRoughness" : {
                "baseColorTexture" : {
                    "index" : 2
                },
                "metallicFactor" : 0,
                "roughnessFactor" : 0.5
            }
        },
        {
            "doubleSided" : true,
            "name" : "sliders",
            "pbrMetallicRoughness" : {
                "baseColorTexture" : {
                    "index" : 3
                },
                "metallicFactor" : 0,
                "roughnessFactor" : 0.5
            }
        },
        {
            "doubleSided" : true,
            "name" : "circles",
            "pbrMetallicRoughness" : {
                "baseColorTexture" : {
                    "index" : 4
                },
                "metallicFactor" : 0,
                "roughnessFactor" : 0.5
            }
        },
        {
            "doubleSided" : true,
            "name" : "01",
            "pbrMetallicRoughness" : {
                "baseColorTexture" : {
                    "index" : 5
                },
                "metallicFactor" : 0,
                "roughnessFactor" : 0.5
            }
        },
        {
            "doubleSided" : true,
            "name" : "gauges",
            "pbrMetallicRoughness" : {
                "baseColorTexture" : {
                    "index" : 6
                },
                "metallicFactor" : 0,
                "roughnessFactor" : 0.5
            }
        }
    ],
    "meshes" : [
        {
            "name" : "Cube.003",
            "primitives" : [
                {
                    "attributes" : {
                        "POSITION" : 0,
                        "NORMAL" : 1,
                        "TEXCOORD_0" : 2
                    },
                    "indices" : 3,
                    "material" : 0
                },
                {
                    "attributes" : {
                        "POSITION" : 4,
                        "NORMAL" : 5,
                        "TEXCOORD_0" : 6
                    },
                    "indices" : 7,
                    "material" : 1
                },
                {
                    "attributes" : {
                        "POSITION" : 8,
                        "NORMAL" : 9,
                        "TEXCOORD_0" : 10
                    },
                    "indices" : 11,
                    "material" : 2
                },
                {
                    "attributes" : {
                        "POSITION" : 12,
                        "NORMAL" : 13,
                        "TEXCOORD_0" : 14
                    },
                    "indices" : 15,
                    "material" : 3
                },
                {
                    "attributes" : {
                        "POSITION" : 16,
                        "NORMAL" : 17,
                        "TEXCOORD_0" : 18
                    },
                    "indices" : 11,
                    "material" : 4
                },
                {
                    "attributes" : {
                        "POSITION" : 19,
                        "NORMAL" : 20,
                        "TEXCOORD_0" : 21
                    },
                    "indices" : 15,
                    "material" : 5
                },
                {
                    "attributes" : {
                        "POSITION" : 22,
                        "NORMAL" : 23,
                        "TEXCOORD_0" : 24
                    },
                    "indices" : 25,
                    "material" : 6
                },
                {
                    "attributes" : {
                        "POSITION" : 26,
                        "NORMAL" : 27,
                        "TEXCOORD_0" : 28
                    },
                    "indices" : 29,
                    "material" : 7
                },
                {
                    "attributes" : {
                        "POSITION" : 30,
                        "NORMAL" : 31,
                        "TEXCOORD_0" : 32
                    },
                    "indices" : 25,
                    "material" : 8
                }
            ]
        },
        {
            "name" : "Circle",
            "primitives" : [
                {
                    "attributes" : {
                        "POSITION" : 33,
                        "NORMAL" : 34,
                        "TEXCOORD_0" : 35
                    },
                    "indices" : 36,
                    "material" : 1
                }
            ]
        },
        {
            "name" : "Circle.001",
            "primitives" : [
                {
                    "attributes" : {
                        "POSITION" : 37,
                        "NORMAL" : 38,
                        "TEXCOORD_0" : 39
                    },
                    "indices" : 36,
                    "material" : 1
                }
            ]
        }
    ],
    "textures" : [
        {
            "sampler" : 0,
            "source" : 0
        },
        {
            "sampler" : 0,
            "source" : 1
        },
        {
            "sampler" : 0,
            "source" : 2
        },
        {
            "sampler" : 1,
            "source" : 3
        },
        {
            "sampler" : 1,
            "source" : 4
        },
        {
            "sampler" : 1,
            "source" : 5
        },
        {
            "sampler" : 1,
            "source" : 6
        }
    ],
    "images" : [
        {
            "bufferView" : 12,
            "mimeType" : "image/png",
            "name" : "maptexture"
        },
        {
            "bufferView" : 17,
            "mimeType" : "image/png",
            "name" : "graphs"
        },
        {
            "bufferView" : 21,
            "mimeType" : "image/png",
            "name" : "keyboard"
        },
        {
            "bufferView" : 25,
            "mimeType" : "image/png",
            "name" : "sliders"
        },
        {
            "bufferView" : 30,
            "mimeType" : "image/png",
            "name" : "circles"
        },
        {
            "bufferView" : 35,
            "mimeType" : "image/png",
            "name" : "010101001010"
        },
        {
            "bufferView" : 39,
            "mimeType" : "image/png",
            "name" : "gauge"
        }
    ],
    "accessors" : [
        {
            "bufferView" : 0,
            "componentType" : 5126,
            "count" : 484,
            "max" : [
                8.261363983154297,
                2.292639970779419,
                1.5495891571044922
            ],
            "min" : [
                -8.261363983154297,
                -1,
                -6.921491622924805
            ],
            "type" : "VEC3"
        },
        {
            "bufferView" : 1,
            "componentType" : 5126,
            "count" : 484,
            "type" : "VEC3"
        },
        {
            "bufferView" : 2,
            "componentType" : 5126,
            "count" : 484,
            "type" : "VEC2"
        },
        {
            "bufferView" : 3,
            "componentType" : 5123,
            "count" : 828,
            "type" : "SCALAR"
        },
        {
            "bufferView" : 4,
            "componentType" : 5126,
            "count" : 154,
            "max" : [
                8.261363983154297,
                1,
                1.5495891571044922
            ],
            "min" : [
                -8.261363983154297,
                -0.8962624073028564,
                -6.921491622924805
            ],
            "type" : "VEC3"
        },
        {
            "bufferView" : 5,
            "componentType" : 5126,
            "count" : 154,
            "type" : "VEC3"
        },
        {
            "bufferView" : 6,
            "componentType" : 5126,
            "count" : 154,
            "type" : "VEC2"
        },
        {
            "bufferView" : 7,
            "componentType" : 5123,
            "count" : 252,
            "type" : "SCALAR"
        },
        {
            "bufferView" : 8,
            "componentType" : 5126,
            "count" : 4,
            "max" : [
                8.226614952087402,
                2.27726411819458,
                -1.0322871208190918
            ],
            "min" : [
                4.867761135101318,
                1.0153758525848389,
                -6.516130447387695
            ],
            "type" : "VEC3"
        },
        {
            "bufferView" : 9,
            "componentType" : 5126,
            "count" : 4,
            "type" : "VEC3"
        },
        {
            "bufferView" : 10,
            "componentType" : 5126,
            "count" : 4,
            "type" : "VEC2"
        },
        {
            "bufferView" : 11,
            "componentType" : 5123,
            "count" : 6,
            "type" : "SCALAR"
        },
        {
            "bufferView" : 13,
            "componentType" : 5126,
            "count" : 4,
            "max" : [
                4.794277667999268,
                2.275123119354248,
                1.5150412321090698
            ],
            "min" : [
                3.096742630004883,
                1.017515778541565,
                -0.9654520750045776
            ],
            "type" : "VEC3"
        },
        {
            "bufferView" : 14,
            "componentType" : 5126,
            "count" : 4,
            "type" : "VEC3"
        },
        {
            "bufferView" : 15,
            "componentType" : 5126,
            "count" : 4,
            "type" : "VEC2"
        },
        {
            "bufferView" : 16,
            "componentType" : 5123,
            "count" : 6,
            "type" : "SCALAR"
        },
        {
            "bufferView" : 18,
            "componentType" : 5126,
            "count" : 4,
            "max" : [
                0.9645851850509644,
                2.276625394821167,
                1.5180021524429321
            ],
            "min" : [
                -0.9645851850509644,
                1.016014575958252,
                -0.9684129953384399
            ],
            "type" : "VEC3"
        },
        {
            "bufferView" : 19,
            "componentType" : 5126,
            "count" : 4,
            "type" : "VEC3"
        },
        {
            "bufferView" : 20,
            "componentType" : 5126,
            "count" : 4,
            "type" : "VEC2"
        },
        {
            "bufferView" : 22,
            "componentType" : 5126,
            "count" : 4,
            "max" : [
                3.0214717388153076,
                2.276118278503418,
                1.517001748085022
            ],
            "min" : [
                1.0365363359451294,
                1.0165218114852905,
                -0.9674126505851746
            ],
            "type" : "VEC3"
        },
        {
            "bufferView" : 23,
            "componentType" : 5126,
            "count" : 4,
            "type" : "VEC3"
        },
        {
            "bufferView" : 24,
            "componentType" : 5126,
            "count" : 4,
            "type" : "VEC2"
        },
        {
            "bufferView" : 26,
            "componentType" : 5126,
            "count" : 4,
            "max" : [
                -1.0299999713897705,
                2.27907395362854,
                1.522831678390503
            ],
            "min" : [
                -3.028008222579956,
                1.013566017150879,
                -0.9732425212860107
            ],
            "type" : "VEC3"
        },
        {
            "bufferView" : 27,
            "componentType" : 5126,
            "count" : 4,
            "type" : "VEC3"
        },
        {
            "bufferView" : 28,
            "componentType" : 5126,
            "count" : 4,
            "type" : "VEC2"
        },
        {
            "bufferView" : 29,
            "componentType" : 5123,
            "count" : 6,
            "type" : "SCALAR"
        },
        {
            "bufferView" : 31,
            "componentType" : 5126,
            "count" : 4,
            "max" : [
                -3.088008165359497,
                2.2790727615356445,
                1.522831678390503
            ],
            "min" : [
                -4.803011894226074,
                1.013566017150879,
                -0.9732425212860107
            ],
            "type" : "VEC3"
        },
        {
            "bufferView" : 32,
            "componentType" : 5126,
            "count" : 4,
            "type" : "VEC3"
        },
        {
            "bufferView" : 33,
            "componentType" : 5126,
            "count" : 4,
            "type" : "VEC2"
        },
        {
            "bufferView" : 34,
            "componentType" : 5123,
            "count" : 6,
            "type" : "SCALAR"
        },
        {
            "bufferView" : 36,
            "componentType" : 5126,
            "count" : 4,
            "max" : [
                -4.86518669128418,
                2.2784032821655273,
                -1.0298950672149658
            ],
            "min" : [
                -8.2291898727417,
                1.0142366886138916,
                -6.5185227394104
            ],
            "type" : "VEC3"
        },
        {
            "bufferView" : 37,
            "componentType" : 5126,
            "count" : 4,
            "type" : "VEC3"
        },
        {
            "bufferView" : 38,
            "componentType" : 5126,
            "count" : 4,
            "type" : "VEC2"
        },
        {
            "bufferView" : 40,
            "componentType" : 5126,
            "count" : 18,
            "max" : [
                0.8632183074951172,
                -0.002541925525292754,
                0.4850587248802185
            ],
            "min" : [
                -0.868832528591156,
                -0.05997172370553017,
                -1.0149413347244263
            ],
            "type" : "VEC3"
        },
        {
            "bufferView" : 41,
            "componentType" : 5126,
            "count" : 18,
            "type" : "VEC3"
        },
        {
            "bufferView" : 42,
            "componentType" : 5126,
            "count" : 18,
            "type" : "VEC2"
        },
        {
            "bufferView" : 43,
            "componentType" : 5123,
            "count" : 24,
            "type" : "SCALAR"
        },
        {
            "bufferView" : 44,
            "componentType" : 5126,
            "count" : 18,
            "max" : [
                0.8632183074951172,
                -0.002541925525292754,
                0.4850587248802185
            ],
            "min" : [
                -0.868832528591156,
                -0.05997172370553017,
                -1.0149413347244263
            ],
            "type" : "VEC3"
        },
        {
            "bufferView" : 45,
            "componentType" : 5126,
            "count" : 18,
            "type" : "VEC3"
        },
        {
            "bufferView" : 46,
            "componentType" : 5126,
            "count" : 18,
            "type" : "VEC2"
        }
    ],
    "bufferViews" : [
        {
            "buffer" : 0,
            "byteLength" : 5808,
            "byteOffset" : 0
        },
        {
            "buffer" : 0,
            "byteLength" : 5808,
            "byteOffset" : 5808
        },
        {
            "buffer" : 0,
            "byteLength" : 3872,
            "byteOffset" : 11616
        },
        {
            "buffer" : 0,
            "byteLength" : 1656,
            "byteOffset" : 15488
        },
        {
            "buffer" : 0,
            "byteLength" : 1848,
            "byteOffset" : 17144
        },
        {
            "buffer" : 0,
            "byteLength" : 1848,
            "byteOffset" : 18992
        },
        {
            "buffer" : 0,
            "byteLength" : 1232,
            "byteOffset" : 20840
        },
        {
            "buffer" : 0,
            "byteLength" : 504,
            "byteOffset" : 22072
        },
        {
            "buffer" : 0,
            "byteLength" : 48,
            "byteOffset" : 22576
        },
        {
            "buffer" : 0,
            "byteLength" : 48,
            "byteOffset" : 22624
        },
        {
            "buffer" : 0,
            "byteLength" : 32,
            "byteOffset" : 22672
        },
        {
            "buffer" : 0,
            "byteLength" : 12,
            "byteOffset" : 22704
        },
        {
            "buffer" : 0,
            "byteLength" : 668284,
            "byteOffset" : 22716
        },
        {
            "buffer" : 0,
            "byteLength" : 48,
            "byteOffset" : 691000
        },
        {
            "buffer" : 0,
            "byteLength" : 48,
            "byteOffset" : 691048
        },
        {
            "buffer" : 0,
            "byteLength" : 32,
            "byteOffset" : 691096
        },
        {
            "buffer" : 0,
            "byteLength" : 12,
            "byteOffset" : 691128
        },
        {
            "buffer" : 0,
            "byteLength" : 44958,
            "byteOffset" : 691140
        },
        {
            "buffer" : 0,
            "byteLength" : 48,
            "byteOffset" : 736100
        },
        {
            "buffer" : 0,
            "byteLength" : 48,
            "byteOffset" : 736148
        },
        {
            "buffer" : 0,
            "byteLength" : 32,
            "byteOffset" : 736196
        },
        {
            "buffer" : 0,
            "byteLength" : 261403,
            "byteOffset" : 736228
        },
        {
            "buffer" : 0,
            "byteLength" : 48,
            "byteOffset" : 997632
        },
        {
            "buffer" : 0,
            "byteLength" : 48,
            "byteOffset" : 997680
        },
        {
            "buffer" : 0,
            "byteLength" : 32,
            "byteOffset" : 997728
        },
        {
            "buffer" : 0,
            "byteLength" : 75791,
            "byteOffset" : 997760
        },
        {
            "buffer" : 0,
            "byteLength" : 48,
            "byteOffset" : 1073552
        },
        {
            "buffer" : 0,
            "byteLength" : 48,
            "byteOffset" : 1073600
        },
        {
            "buffer" : 0,
            "byteLength" : 32,
            "byteOffset" : 1073648
        },
        {
            "buffer" : 0,
            "byteLength" : 12,
            "byteOffset" : 1073680
        },
        {
            "buffer" : 0,
            "byteLength" : 241419,
            "byteOffset" : 1073692
        },
        {
            "buffer" : 0,
            "byteLength" : 48,
            "byteOffset" : 1315112
        },
        {
            "buffer" : 0,
            "byteLength" : 48,
            "byteOffset" : 1315160
        },
        {
            "buffer" : 0,
            "byteLength" : 32,
            "byteOffset" : 1315208
        },
        {
            "buffer" : 0,
            "byteLength" : 12,
            "byteOffset" : 1315240
        },
        {
            "buffer" : 0,
            "byteLength" : 389802,
            "byteOffset" : 1315252
        },
        {
            "buffer" : 0,
            "byteLength" : 48,
            "byteOffset" : 1705056
        },
        {
            "buffer" : 0,
            "byteLength" : 48,
            "byteOffset" : 1705104
        },
        {
            "buffer" : 0,
            "byteLength" : 32,
            "byteOffset" : 1705152
        },
        {
            "buffer" : 0,
            "byteLength" : 481518,
            "byteOffset" : 1705184
        },
        {
            "buffer" : 0,
            "byteLength" : 216,
            "byteOffset" : 2186704
        },
        {
            "buffer" : 0,
            "byteLength" : 216,
            "byteOffset" : 2186920
        },
        {
            "buffer" : 0,
            "byteLength" : 144,
            "byteOffset" : 2187136
        },
        {
            "buffer" : 0,
            "byteLength" : 48,
            "byteOffset" : 2187280
        },
        {
            "buffer" : 0,
            "byteLength" : 216,
            "byteOffset" : 2187328
        },
        {
            "buffer" : 0,
            "byteLength" : 216,
            "byteOffset" : 2187544
        },
        {
            "buffer" : 0,
            "byteLength" : 144,
            "byteOffset" : 2187760
        }
    ],
    "samplers" : [
        {
            "magFilter" : 9729,
            "minFilter" : 9987,
            "wrapS" : 33071,
            "wrapT" : 33071
        },
        {
            "magFilter" : 9729,
            "minFilter" : 9987
        }
    ],
    "buffers" : [
        {
            "byteLength" : 2187904,
            "uri" : "data:application/octet-stream;base64,"
        }
    ]
}
