{
    "asset" : {
        "generator" : "Khronos glTF Blender I/O v1.6.16",
        "version" : "2.0"
    },
    "scene" : 0,
    "scenes" : [
        {
            "name" : "Scene",
            "nodes" : [
                0,
                1,
                2,
                3,
                4,
                5,
                6,
                7,
                8,
                9,
                10,
                11
            ]
        }
    ],
    "nodes" : [
        {
            "name" : "Light",
            "rotation" : [
                0.16907575726509094,
                0.7558803558349609,
                -0.27217137813568115,
                0.570947527885437
            ],
            "translation" : [
                1.9194707870483398,
                6.755979537963867,
                -1.0054539442062378
            ]
        },
        {
            "name" : "Camera",
            "rotation" : [
                0.483536034822464,
                0.33687159419059753,
                -0.20870360732078552,
                0.7804827094078064
            ],
            "translation" : [
                7.358891487121582,
                4.958309173583984,
                6.925790786743164
            ]
        },
        {
            "mesh" : 0,
            "name" : "Cube",
            "translation" : [
                -2.6146183013916016,
                1.5432178974151611,
                0
            ]
        },
        {
            "mesh" : 1,
            "name" : "Cylinder",
            "rotation" : [
                0.7071068286895752,
                0,
                0,
                0.7071068286895752
            ],
            "scale" : [
                0.20000000298023224,
                1,
                0.20000000298023224
            ],
            "translation" : [
                -2.6146183013916016,
                1.6293632984161377,
                0
            ]
        },
        {
            "mesh" : 2,
            "name" : "Cylinder.001",
            "rotation" : [
                0.7071068286895752,
                0,
                0,
                0.7071068286895752
            ],
            "scale" : [
                0.20000000298023224,
                1,
                0.20000000298023224
            ],
            "translation" : [
                -0.49458199739456177,
                1.6257410049438477,
                0
            ]
        },
        {
            "mesh" : 3,
            "name" : "Cylinder.002",
            "rotation" : [
                0.7071068286895752,
                0,
                0,
                0.7071068286895752
            ],
            "scale" : [
                0.20000000298023224,
                1,
                0.20000000298023224
            ],
            "translation" : [
                1.3893930912017822,
                1.6226648092269897,
                0.019360661506652832
            ]
        },
        {
            "mesh" : 4,
            "name" : "Cube.001",
            "scale" : [
                2.0500001907348633,
                0.0010000000474974513,
                1
            ],
            "translation" : [
                -0.6491168141365051,
                1.826328992843628,
                0
            ]
        },
        {
            "mesh" : 5,
            "name" : "Cube.002",
            "scale" : [
                2.0500001907348633,
                0.0010000000474974513,
                1
            ],
            "translation" : [
                -0.6491168141365051,
                1.4315130710601807,
                0
            ]
        },
        {
            "mesh" : 6,
            "name" : "Cube.003",
            "scale" : [
                1.5,
                1,
                1.5
            ],
            "translation" : [
                -2.6865592002868652,
                2.1741976737976074,
                0
            ]
        },
        {
            "mesh" : 7,
            "name" : "Cube.004",
            "scale" : [
                1,
                0.050000011920928955,
                1
            ],
            "translation" : [
                2.626920223236084,
                1.24778413772583,
                0.036726564168930054
            ]
        },
        {
            "mesh" : 8,
            "name" : "Cylinder.003",
            "scale" : [
                0.20000000298023224,
                1,
                0.20000000298023224
            ],
            "translation" : [
                -2.570082426071167,
                0.20536912977695465,
                0
            ]
        },
        {
            "mesh" : 9,
            "name" : "Cylinder.004",
            "scale" : [
                0.10000000149011612,
                1,
                0.10000000149011612
            ],
            "translation" : [
                2.6787233352661133,
                0.20536912977695465,
                0
            ]
        }
    ],
    "materials" : [
        {
            "doubleSided" : true,
            "name" : "Material.007",
            "pbrMetallicRoughness" : {
                "baseColorFactor" : [
                    0.044454578310251236,
                    0.044454578310251236,
                    0.044454578310251236,
                    1
                ],
                "metallicFactor" : 0,
                "roughnessFactor" : 0.5
            }
        },
        {
            "doubleSided" : true,
            "name" : "Material.006",
            "pbrMetallicRoughness" : {
                "baseColorFactor" : [
                    0.04954908788204193,
                    0.04954908788204193,
                    0.04954908788204193,
                    1
                ],
                "metallicFactor" : 0,
                "roughnessFactor" : 0.5
            }
        },
        {
            "doubleSided" : true,
            "name" : "Material.005",
            "pbrMetallicRoughness" : {
                "baseColorFactor" : [
                    0.025393841788172722,
                    0.025393841788172722,
                    0.025393841788172722,
                    1
                ],
                "metallicFactor" : 0,
                "roughnessFactor" : 0.5
            }
        },
        {
            "doubleSided" : true,
            "name" : "Material.003",
            "pbrMetallicRoughness" : {
                "baseColorFactor" : [
                    0.02037886530160904,
                    0.02037886530160904,
                    0.02037886530160904,
                    1
                ],
                "metallicFactor" : 0,
                "roughnessFactor" : 0.5
            }
        },
        {
            "doubleSided" : true,
            "name" : "Material.004",
            "pbrMetallicRoughness" : {
                "baseColorFactor" : [
                    0.06997796893119812,
                    0.06997796893119812,
                    0.06997796893119812,
                    1
                ],
                "metallicFactor" : 0,
                "roughnessFactor" : 0.5
            }
        },
        {
            "doubleSided" : true,
            "name" : "Material.008",
            "pbrMetallicRoughness" : {
                "baseColorFactor" : [
                    1,
                    0.5225134491920471,
                    0,
                    1
                ],
                "metallicFactor" : 0,
                "roughnessFactor" : 0.5
            }
        },
        {
            "doubleSided" : true,
            "name" : "Material.009",
            "pbrMetallicRoughness" : {
                "baseColorFactor" : [
                    0.8000000715255737,
                    0.4912111759185791,
                    0,
                    1
                ],
                "metallicFactor" : 0,
                "roughnessFactor" : 0.5
            }
        },
        {
            "doubleSided" : true,
            "name" : "Material.010",
            "pbrMetallicRoughness" : {
                "baseColorFactor" : [
                    0.8000000715255737,
                    0.4866374135017395,
                    0,
                    1
                ],
                "metallicFactor" : 0,
                "roughnessFactor" : 0.5
            }
        },
        {
            "doubleSided" : true,
            "name" : "Material.011",
            "pbrMetallicRoughness" : {
                "baseColorFactor" : [
                    0.8000000715255737,
                    0.4866374135017395,
                    0,
                    1
                ],
                "metallicFactor" : 0,
                "roughnessFactor" : 0.5
            }
        }
    ],
    "meshes" : [
        {
            "name" : "Cube.001",
            "primitives" : [
                {
                    "attributes" : {
                        "POSITION" : 0,
                        "NORMAL" : 1,
                        "TEXCOORD_0" : 2
                    },
                    "indices" : 3
                }
            ]
        },
        {
            "name" : "Cylinder",
            "primitives" : [
                {
                    "attributes" : {
                        "POSITION" : 4,
                        "NORMAL" : 5,
                        "TEXCOORD_0" : 6
                    },
                    "indices" : 7,
                    "material" : 0
                }
            ]
        },
        {
            "name" : "Cylinder.001",
            "primitives" : [
                {
                    "attributes" : {
                        "POSITION" : 8,
                        "NORMAL" : 9,
                        "TEXCOORD_0" : 10
                    },
                    "indices" : 7,
                    "material" : 1
                }
            ]
        },
        {
            "name" : "Cylinder.002",
            "primitives" : [
                {
                    "attributes" : {
                        "POSITION" : 11,
                        "NORMAL" : 12,
                        "TEXCOORD_0" : 13
                    },
                    "indices" : 7,
                    "material" : 2
                }
            ]
        },
        {
            "name" : "Cube",
            "primitives" : [
                {
                    "attributes" : {
                        "POSITION" : 14,
                        "NORMAL" : 15,
                        "TEXCOORD_0" : 16
                    },
                    "indices" : 17,
                    "material" : 3
                }
            ]
        },
        {
            "name" : "Cube.002",
            "primitives" : [
                {
                    "attributes" : {
                        "POSITION" : 18,
                        "NORMAL" : 19,
                        "TEXCOORD_0" : 20
                    },
                    "indices" : 17,
                    "material" : 4
                }
            ]
        },
        {
            "name" : "Cube.004",
            "primitives" : [
                {
                    "attributes" : {
                        "POSITION" : 21,
                        "NORMAL" : 22,
                        "TEXCOORD_0" : 23
                    },
                    "indices" : 24,
                    "material" : 5
                }
            ]
        },
        {
            "name" : "Cube.005",
            "primitives" : [
                {
                    "attributes" : {
                        "POSITION" : 25,
                        "NORMAL" : 26,
                        "TEXCOORD_0" : 27
                    },
                    "indices" : 17,
                    "material" : 6
                }
            ]
        },
        {
            "name" : "Cylinder.003",
            "primitives" : [
                {
                    "attributes" : {
                        "POSITION" : 28,
                        "NORMAL" : 29,
                        "TEXCOORD_0" : 30
                    },
                    "indices" : 7,
                    "material" : 7
                }
            ]
        },
        {
            "name" : "Cylinder.004",
            "primitives" : [
                {
                    "attributes" : {
                        "POSITION" : 31,
                        "NORMAL" : 32,
                        "TEXCOORD_0" : 33
                    },
                    "indices" : 7,
                    "material" : 8
                }
            ]
        }
    ],
    "accessors" : [
        {
            "bufferView" : 0,
            "componentType" : 5126,
            "count" : 14,
            "max" : [
                0,
                0,
                0
            ],
            "min" : [
                0,
                0,
                0
            ],
            "type" : "VEC3"
        },
        {
            "bufferView" : 1,
            "componentType" : 5126,
            "count" : 14,
            "type" : "VEC3"
        },
        {
            "bufferView" : 2,
            "componentType" : 5126,
            "count" : 14,
            "type" : "VEC2"
        },
        {
            "bufferView" : 3,
            "componentType" : 5123,
            "count" : 36,
            "type" : "SCALAR"
        },
        {
            "bufferView" : 4,
            "componentType" : 5126,
            "count" : 192,
            "max" : [
                1,
                1,
                1
            ],
            "min" : [
                -1,
                -1,
                -1
            ],
            "type" : "VEC3"
        },
        {
            "bufferView" : 5,
            "componentType" : 5126,
            "count" : 192,
            "type" : "VEC3"
        },
        {
            "bufferView" : 6,
            "componentType" : 5126,
            "count" : 192,
            "type" : "VEC2"
        },
        {
            "bufferView" : 7,
            "componentType" : 5123,
            "count" : 372,
            "type" : "SCALAR"
        },
        {
            "bufferView" : 8,
            "componentType" : 5126,
            "count" : 192,
            "max" : [
                1,
                1,
                1
            ],
            "min" : [
                -1,
                -1,
                -1
            ],
            "type" : "VEC3"
        },
        {
            "bufferView" : 9,
            "componentType" : 5126,
            "count" : 192,
            "type" : "VEC3"
        },
        {
            "bufferView" : 10,
            "componentType" : 5126,
            "count" : 192,
            "type" : "VEC2"
        },
        {
            "bufferView" : 11,
            "componentType" : 5126,
            "count" : 192,
            "max" : [
                1,
                1,
                1
            ],
            "min" : [
                -1,
                -1,
                -1
            ],
            "type" : "VEC3"
        },
        {
            "bufferView" : 12,
            "componentType" : 5126,
            "count" : 192,
            "type" : "VEC3"
        },
        {
            "bufferView" : 13,
            "componentType" : 5126,
            "count" : 192,
            "type" : "VEC2"
        },
        {
            "bufferView" : 14,
            "componentType" : 5126,
            "count" : 24,
            "max" : [
                1,
                1,
                1
            ],
            "min" : [
                -1,
                -1,
                -1
            ],
            "type" : "VEC3"
        },
        {
            "bufferView" : 15,
            "componentType" : 5126,
            "count" : 24,
            "type" : "VEC3"
        },
        {
            "bufferView" : 16,
            "componentType" : 5126,
            "count" : 24,
            "type" : "VEC2"
        },
        {
            "bufferView" : 17,
            "componentType" : 5123,
            "count" : 36,
            "type" : "SCALAR"
        },
        {
            "bufferView" : 18,
            "componentType" : 5126,
            "count" : 24,
            "max" : [
                1,
                1,
                1
            ],
            "min" : [
                -1,
                -1,
                -1
            ],
            "type" : "VEC3"
        },
        {
            "bufferView" : 19,
            "componentType" : 5126,
            "count" : 24,
            "type" : "VEC3"
        },
        {
            "bufferView" : 20,
            "componentType" : 5126,
            "count" : 24,
            "type" : "VEC2"
        },
        {
            "bufferView" : 21,
            "componentType" : 5126,
            "count" : 136,
            "max" : [
                1,
                1.2412503957748413,
                1.1706011295318604
            ],
            "min" : [
                -1,
                -1,
                -1.148490309715271
            ],
            "type" : "VEC3"
        },
        {
            "bufferView" : 22,
            "componentType" : 5126,
            "count" : 136,
            "type" : "VEC3"
        },
        {
            "bufferView" : 23,
            "componentType" : 5126,
            "count" : 136,
            "type" : "VEC2"
        },
        {
            "bufferView" : 24,
            "componentType" : 5123,
            "count" : 228,
            "type" : "SCALAR"
        },
        {
            "bufferView" : 25,
            "componentType" : 5126,
            "count" : 24,
            "max" : [
                1,
                1,
                1
            ],
            "min" : [
                -1,
                -1,
                -1
            ],
            "type" : "VEC3"
        },
        {
            "bufferView" : 26,
            "componentType" : 5126,
            "count" : 24,
            "type" : "VEC3"
        },
        {
            "bufferView" : 27,
            "componentType" : 5126,
            "count" : 24,
            "type" : "VEC2"
        },
        {
            "bufferView" : 28,
            "componentType" : 5126,
            "count" : 192,
            "max" : [
                1,
                1,
                1
            ],
            "min" : [
                -1,
                -1,
                -1
            ],
            "type" : "VEC3"
        },
        {
            "bufferView" : 29,
            "componentType" : 5126,
            "count" : 192,
            "type" : "VEC3"
        },
        {
            "bufferView" : 30,
            "componentType" : 5126,
            "count" : 192,
            "type" : "VEC2"
        },
        {
            "bufferView" : 31,
            "componentType" : 5126,
            "count" : 192,
            "max" : [
                1,
                1,
                1
            ],
            "min" : [
                -1,
                -1,
                -1
            ],
            "type" : "VEC3"
        },
        {
            "bufferView" : 32,
            "componentType" : 5126,
            "count" : 192,
            "type" : "VEC3"
        },
        {
            "bufferView" : 33,
            "componentType" : 5126,
            "count" : 192,
            "type" : "VEC2"
        }
    ],
    "bufferViews" : [
        {
            "buffer" : 0,
            "byteLength" : 168,
            "byteOffset" : 0
        },
        {
            "buffer" : 0,
            "byteLength" : 168,
            "byteOffset" : 168
        },
        {
            "buffer" : 0,
            "byteLength" : 112,
            "byteOffset" : 336
        },
        {
            "buffer" : 0,
            "byteLength" : 72,
            "byteOffset" : 448
        },
        {
            "buffer" : 0,
            "byteLength" : 2304,
            "byteOffset" : 520
        },
        {
            "buffer" : 0,
            "byteLength" : 2304,
            "byteOffset" : 2824
        },
        {
            "buffer" : 0,
            "byteLength" : 1536,
            "byteOffset" : 5128
        },
        {
            "buffer" : 0,
            "byteLength" : 744,
            "byteOffset" : 6664
        },
        {
            "buffer" : 0,
            "byteLength" : 2304,
            "byteOffset" : 7408
        },
        {
            "buffer" : 0,
            "byteLength" : 2304,
            "byteOffset" : 9712
        },
        {
            "buffer" : 0,
            "byteLength" : 1536,
            "byteOffset" : 12016
        },
        {
            "buffer" : 0,
            "byteLength" : 2304,
            "byteOffset" : 13552
        },
        {
            "buffer" : 0,
            "byteLength" : 2304,
            "byteOffset" : 15856
        },
        {
            "buffer" : 0,
            "byteLength" : 1536,
            "byteOffset" : 18160
        },
        {
            "buffer" : 0,
            "byteLength" : 288,
            "byteOffset" : 19696
        },
        {
            "buffer" : 0,
            "byteLength" : 288,
            "byteOffset" : 19984
        },
        {
            "buffer" : 0,
            "byteLength" : 192,
            "byteOffset" : 20272
        },
        {
            "buffer" : 0,
            "byteLength" : 72,
            "byteOffset" : 20464
        },
        {
            "buffer" : 0,
            "byteLength" : 288,
            "byteOffset" : 20536
        },
        {
            "buffer" : 0,
            "byteLength" : 288,
            "byteOffset" : 20824
        },
        {
            "buffer" : 0,
            "byteLength" : 192,
            "byteOffset" : 21112
        },
        {
            "buffer" : 0,
            "byteLength" : 1632,
            "byteOffset" : 21304
        },
        {
            "buffer" : 0,
            "byteLength" : 1632,
            "byteOffset" : 22936
        },
        {
            "buffer" : 0,
            "byteLength" : 1088,
            "byteOffset" : 24568
        },
        {
            "buffer" : 0,
            "byteLength" : 456,
            "byteOffset" : 25656
        },
        {
            "buffer" : 0,
            "byteLength" : 288,
            "byteOffset" : 26112
        },
        {
            "buffer" : 0,
            "byteLength" : 288,
            "byteOffset" : 26400
        },
        {
            "buffer" : 0,
            "byteLength" : 192,
            "byteOffset" : 26688
        },
        {
            "buffer" : 0,
            "byteLength" : 2304,
            "byteOffset" : 26880
        },
        {
            "buffer" : 0,
            "byteLength" : 2304,
            "byteOffset" : 29184
        },
        {
            "buffer" : 0,
            "byteLength" : 1536,
            "byteOffset" : 31488
        },
        {
            "buffer" : 0,
            "byteLength" : 2304,
            "byteOffset" : 33024
        },
        {
            "buffer" : 0,
            "byteLength" : 2304,
            "byteOffset" : 35328
        },
        {
            "buffer" : 0,
            "byteLength" : 1536,
            "byteOffset" : 37632
        }
    ],
    "buffers" : [
        {
            "byteLength" : 39168,
            "uri" : "data:application/octet-stream;base64,"
        }
    ]
}
