{
    "asset" : {
        "generator" : "Khronos glTF Blender I/O v1.6.16",
        "version" : "2.0"
    },
    "scene" : 0,
    "scenes" : [
        {
            "name" : "Scene",
            "nodes" : [
                0,
                1,
                2,
                3,
                4,
                5,
                6,
                7,
                8
            ]
        }
    ],
    "nodes" : [
        {
            "mesh" : 0,
            "name" : "Cube",
            "scale" : [
                1,
                0.25999999046325684,
                1
            ],
            "translation" : [
                0,
                0.8750001788139343,
                0
            ]
        },
        {
            "name" : "Light",
            "rotation" : [
                0.16907575726509094,
                0.7558803558349609,
                -0.27217137813568115,
                0.570947527885437
            ],
            "translation" : [
                4.076245307922363,
                6.581161975860596,
                -1.0054539442062378
            ]
        },
        {
            "name" : "Camera",
            "rotation" : [
                0.483536034822464,
                0.33687159419059753,
                -0.20870360732078552,
                0.7804827094078064
            ],
            "translation" : [
                7.358891487121582,
                4.958309173583984,
                6.925790786743164
            ]
        },
        {
            "mesh" : 1,
            "name" : "Cylinder",
            "scale" : [
                0.10000000149011612,
                1,
                0.10000000149011612
            ],
            "translation" : [
                0.9899548888206482,
                2.040207624435425,
                -0.5704742074012756
            ]
        },
        {
            "mesh" : 2,
            "name" : "Cylinder.001",
            "scale" : [
                0.10000000149011612,
                1,
                0.10000000149011612
            ],
            "translation" : [
                -0.9790318012237549,
                2.0854291915893555,
                -0.555023729801178
            ]
        },
        {
            "mesh" : 3,
            "name" : "Torus",
            "scale" : [
                0.30000001192092896,
                0.10000000149011612,
                0.30000001192092896
            ],
            "translation" : [
                0,
                0.6927841901779175,
                -0.10961568355560303
            ]
        },
        {
            "mesh" : 4,
            "name" : "Sphere",
            "scale" : [
                0.10000000149011612,
                0.10000000149011612,
                0.10000000149011612
            ],
            "translation" : [
                0.8123249411582947,
                0.7455350756645203,
                0.8540222644805908
            ]
        },
        {
            "mesh" : 5,
            "name" : "Sphere.001",
            "scale" : [
                0.10000000149011612,
                0.10000000149011612,
                0.10000000149011612
            ],
            "translation" : [
                0.8123249411582947,
                0.9568296074867249,
                0.7286982536315918
            ]
        },
        {
            "mesh" : 6,
            "name" : "Cube.001",
            "scale" : [
                1.600000023841858,
                0.1600000262260437,
                1.399999976158142
            ],
            "translation" : [
                -0.1795632690191269,
                0.02882995456457138,
                0
            ]
        }
    ],
    "materials" : [
        {
            "doubleSided" : true,
            "name" : "Material",
            "pbrMetallicRoughness" : {
                "baseColorFactor" : [
                    0.11068868637084961,
                    0.10462725907564163,
                    0.10462725907564163,
                    1
                ],
                "metallicFactor" : 0,
                "roughnessFactor" : 0.8852940797805786
            }
        },
        {
            "doubleSided" : true,
            "name" : "Material.001",
            "pbrMetallicRoughness" : {
                "baseColorFactor" : [
                    0.3423835337162018,
                    0.2317301332950592,
                    0,
                    1
                ],
                "metallicFactor" : 0.8970588445663452,
                "roughnessFactor" : 0.20588234066963196
            }
        },
        {
            "doubleSided" : true,
            "name" : "Material.002",
            "pbrMetallicRoughness" : {
                "baseColorFactor" : [
                    0.3343236446380615,
                    0.23772218823432922,
                    0,
                    1
                ],
                "metallicFactor" : 0.7867646813392639,
                "roughnessFactor" : 0.25
            }
        },
        {
            "doubleSided" : true,
            "name" : "Material.005",
            "pbrMetallicRoughness" : {
                "baseColorFactor" : [
                    0.4868970215320587,
                    0.2673507630825043,
                    0,
                    1
                ],
                "roughnessFactor" : 0
            }
        },
        {
            "doubleSided" : true,
            "name" : "Material.004",
            "pbrMetallicRoughness" : {
                "baseColorFactor" : [
                    0.16264177858829498,
                    0,
                    0.002967215608805418,
                    1
                ],
                "metallicFactor" : 0,
                "roughnessFactor" : 0.5
            }
        },
        {
            "doubleSided" : true,
            "name" : "Material.003",
            "pbrMetallicRoughness" : {
                "baseColorFactor" : [
                    0.005991534795612097,
                    0.1237100288271904,
                    0,
                    1
                ],
                "metallicFactor" : 0,
                "roughnessFactor" : 0.5
            }
        },
        {
            "doubleSided" : true,
            "name" : "Material.006",
            "pbrMetallicRoughness" : {
                "baseColorFactor" : [
                    0.2330150604248047,
                    0.11890500783920288,
                    0,
                    1
                ],
                "metallicFactor" : 0,
                "roughnessFactor" : 0
            }
        }
    ],
    "meshes" : [
        {
            "name" : "Cube",
            "primitives" : [
                {
                    "attributes" : {
                        "POSITION" : 0,
                        "NORMAL" : 1,
                        "TEXCOORD_0" : 2
                    },
                    "indices" : 3,
                    "material" : 0
                }
            ]
        },
        {
            "name" : "Cylinder",
            "primitives" : [
                {
                    "attributes" : {
                        "POSITION" : 4,
                        "NORMAL" : 5,
                        "TEXCOORD_0" : 6
                    },
                    "indices" : 7,
                    "material" : 1
                }
            ]
        },
        {
            "name" : "Cylinder.001",
            "primitives" : [
                {
                    "attributes" : {
                        "POSITION" : 8,
                        "NORMAL" : 9,
                        "TEXCOORD_0" : 10
                    },
                    "indices" : 7,
                    "material" : 2
                }
            ]
        },
        {
            "name" : "Torus",
            "primitives" : [
                {
                    "attributes" : {
                        "POSITION" : 11,
                        "NORMAL" : 12,
                        "TEXCOORD_0" : 13
                    },
                    "indices" : 14,
                    "material" : 3
                }
            ]
        },
        {
            "name" : "Sphere",
            "primitives" : [
                {
                    "attributes" : {
                        "POSITION" : 15,
                        "NORMAL" : 16,
                        "TEXCOORD_0" : 17
                    },
                    "indices" : 18,
                    "material" : 4
                }
            ]
        },
        {
            "name" : "Sphere.001",
            "primitives" : [
                {
                    "attributes" : {
                        "POSITION" : 19,
                        "NORMAL" : 20,
                        "TEXCOORD_0" : 21
                    },
                    "indices" : 18,
                    "material" : 5
                }
            ]
        },
        {
            "name" : "Cube.001",
            "primitives" : [
                {
                    "attributes" : {
                        "POSITION" : 22,
                        "NORMAL" : 23,
                        "TEXCOORD_0" : 24
                    },
                    "indices" : 25,
                    "material" : 6
                }
            ]
        }
    ],
    "accessors" : [
        {
            "bufferView" : 0,
            "componentType" : 5126,
            "count" : 647,
            "max" : [
                1,
                9.980975151062012,
                1
            ],
            "min" : [
                -1.3869376182556152,
                -2.743391513824463,
                -1
            ],
            "type" : "VEC3"
        },
        {
            "bufferView" : 1,
            "componentType" : 5126,
            "count" : 647,
            "type" : "VEC3"
        },
        {
            "bufferView" : 2,
            "componentType" : 5126,
            "count" : 647,
            "type" : "VEC2"
        },
        {
            "bufferView" : 3,
            "componentType" : 5123,
            "count" : 1332,
            "type" : "SCALAR"
        },
        {
            "bufferView" : 4,
            "componentType" : 5126,
            "count" : 192,
            "max" : [
                1,
                1,
                1
            ],
            "min" : [
                -1,
                -1,
                -1
            ],
            "type" : "VEC3"
        },
        {
            "bufferView" : 5,
            "componentType" : 5126,
            "count" : 192,
            "type" : "VEC3"
        },
        {
            "bufferView" : 6,
            "componentType" : 5126,
            "count" : 192,
            "type" : "VEC2"
        },
        {
            "bufferView" : 7,
            "componentType" : 5123,
            "count" : 372,
            "type" : "SCALAR"
        },
        {
            "bufferView" : 8,
            "componentType" : 5126,
            "count" : 192,
            "max" : [
                1,
                1,
                1
            ],
            "min" : [
                -1,
                -1,
                -1
            ],
            "type" : "VEC3"
        },
        {
            "bufferView" : 9,
            "componentType" : 5126,
            "count" : 192,
            "type" : "VEC3"
        },
        {
            "bufferView" : 10,
            "componentType" : 5126,
            "count" : 192,
            "type" : "VEC2"
        },
        {
            "bufferView" : 11,
            "componentType" : 5126,
            "count" : 2304,
            "max" : [
                1.25,
                0.25,
                1.25
            ],
            "min" : [
                -1.25,
                -0.25,
                -1.25
            ],
            "type" : "VEC3"
        },
        {
            "bufferView" : 12,
            "componentType" : 5126,
            "count" : 2304,
            "type" : "VEC3"
        },
        {
            "bufferView" : 13,
            "componentType" : 5126,
            "count" : 2304,
            "type" : "VEC2"
        },
        {
            "bufferView" : 14,
            "componentType" : 5123,
            "count" : 3456,
            "type" : "SCALAR"
        },
        {
            "bufferView" : 15,
            "componentType" : 5126,
            "count" : 1984,
            "max" : [
                0.9999997019767761,
                1,
                0.9999994039535522
            ],
            "min" : [
                -0.9999990463256836,
                -1,
                -0.9999987483024597
            ],
            "type" : "VEC3"
        },
        {
            "bufferView" : 16,
            "componentType" : 5126,
            "count" : 1984,
            "type" : "VEC3"
        },
        {
            "bufferView" : 17,
            "componentType" : 5126,
            "count" : 1984,
            "type" : "VEC2"
        },
        {
            "bufferView" : 18,
            "componentType" : 5123,
            "count" : 2880,
            "type" : "SCALAR"
        },
        {
            "bufferView" : 19,
            "componentType" : 5126,
            "count" : 1984,
            "max" : [
                0.9999997019767761,
                1,
                0.9999994039535522
            ],
            "min" : [
                -0.9999990463256836,
                -1,
                -0.9999987483024597
            ],
            "type" : "VEC3"
        },
        {
            "bufferView" : 20,
            "componentType" : 5126,
            "count" : 1984,
            "type" : "VEC3"
        },
        {
            "bufferView" : 21,
            "componentType" : 5126,
            "count" : 1984,
            "type" : "VEC2"
        },
        {
            "bufferView" : 22,
            "componentType" : 5126,
            "count" : 24,
            "max" : [
                1,
                1,
                1
            ],
            "min" : [
                -1,
                -1,
                -1
            ],
            "type" : "VEC3"
        },
        {
            "bufferView" : 23,
            "componentType" : 5126,
            "count" : 24,
            "type" : "VEC3"
        },
        {
            "bufferView" : 24,
            "componentType" : 5126,
            "count" : 24,
            "type" : "VEC2"
        },
        {
            "bufferView" : 25,
            "componentType" : 5123,
            "count" : 36,
            "type" : "SCALAR"
        }
    ],
    "bufferViews" : [
        {
            "buffer" : 0,
            "byteLength" : 7764,
            "byteOffset" : 0
        },
        {
            "buffer" : 0,
            "byteLength" : 7764,
            "byteOffset" : 7764
        },
        {
            "buffer" : 0,
            "byteLength" : 5176,
            "byteOffset" : 15528
        },
        {
            "buffer" : 0,
            "byteLength" : 2664,
            "byteOffset" : 20704
        },
        {
            "buffer" : 0,
            "byteLength" : 2304,
            "byteOffset" : 23368
        },
        {
            "buffer" : 0,
            "byteLength" : 2304,
            "byteOffset" : 25672
        },
        {
            "buffer" : 0,
            "byteLength" : 1536,
            "byteOffset" : 27976
        },
        {
            "buffer" : 0,
            "byteLength" : 744,
            "byteOffset" : 29512
        },
        {
            "buffer" : 0,
            "byteLength" : 2304,
            "byteOffset" : 30256
        },
        {
            "buffer" : 0,
            "byteLength" : 2304,
            "byteOffset" : 32560
        },
        {
            "buffer" : 0,
            "byteLength" : 1536,
            "byteOffset" : 34864
        },
        {
            "buffer" : 0,
            "byteLength" : 27648,
            "byteOffset" : 36400
        },
        {
            "buffer" : 0,
            "byteLength" : 27648,
            "byteOffset" : 64048
        },
        {
            "buffer" : 0,
            "byteLength" : 18432,
            "byteOffset" : 91696
        },
        {
            "buffer" : 0,
            "byteLength" : 6912,
            "byteOffset" : 110128
        },
        {
            "buffer" : 0,
            "byteLength" : 23808,
            "byteOffset" : 117040
        },
        {
            "buffer" : 0,
            "byteLength" : 23808,
            "byteOffset" : 140848
        },
        {
            "buffer" : 0,
            "byteLength" : 15872,
            "byteOffset" : 164656
        },
        {
            "buffer" : 0,
            "byteLength" : 5760,
            "byteOffset" : 180528
        },
        {
            "buffer" : 0,
            "byteLength" : 23808,
            "byteOffset" : 186288
        },
        {
            "buffer" : 0,
            "byteLength" : 23808,
            "byteOffset" : 210096
        },
        {
            "buffer" : 0,
            "byteLength" : 15872,
            "byteOffset" : 233904
        },
        {
            "buffer" : 0,
            "byteLength" : 288,
            "byteOffset" : 249776
        },
        {
            "buffer" : 0,
            "byteLength" : 288,
            "byteOffset" : 250064
        },
        {
            "buffer" : 0,
            "byteLength" : 192,
            "byteOffset" : 250352
        },
        {
            "buffer" : 0,
            "byteLength" : 72,
            "byteOffset" : 250544
        }
    ],
    "buffers" : [
        {
            "byteLength" : 250616,
            "uri" : "data:application/octet-stream;base64,"
        }
    ]
}
