{
    "asset" : {
        "generator" : "Khronos glTF Blender I/O v1.6.16",
        "version" : "2.0"
    },
    "scene" : 0,
    "scenes" : [
        {
            "name" : "Scene",
            "nodes" : [
                0,
                1,
                2,
                3
            ]
        }
    ],
    "nodes" : [
        {
            "mesh" : 0,
            "name" : "Cube",
            "rotation" : [
                1,
                0,
                0,
                -4.371138828673793e-08
            ],
            "scale" : [
                10,
                0.5,
                4
            ]
        },
        {
            "name" : "Light",
            "rotation" : [
                0.16907575726509094,
                0.7558803558349609,
                -0.27217137813568115,
                0.570947527885437
            ],
            "translation" : [
                4.076245307922363,
                5.903861999511719,
                -1.0054539442062378
            ]
        },
        {
            "name" : "Camera",
            "rotation" : [
                0.483536034822464,
                0.33687159419059753,
                -0.20870360732078552,
                0.7804827094078064
            ],
            "translation" : [
                7.358891487121582,
                4.958309173583984,
                6.925790786743164
            ]
        },
        {
            "mesh" : 1,
            "name" : "Cube.001",
            "rotation" : [
                1,
                0,
                0,
                -4.371138828673793e-08
            ],
            "scale" : [
                10,
                0.5,
                4
            ],
            "translation" : [
                -20,
                0,
                0
            ]
        }
    ],
    "materials" : [
        {
            "doubleSided" : true,
            "name" : "Material",
            "pbrMetallicRoughness" : {
                "baseColorFactor" : [
                    0.02335692197084427,
                    0.022334296256303787,
                    0.025393711403012276,
                    1
                ],
                "metallicFactor" : 0,
                "roughnessFactor" : 0.5441176295280457
            }
        },
        {
            "doubleSided" : true,
            "name" : "Material.003",
            "pbrMetallicRoughness" : {
                "baseColorFactor" : [
                    0.02335692197084427,
                    0.022334296256303787,
                    0.025393711403012276,
                    1
                ],
                "metallicFactor" : 0,
                "roughnessFactor" : 0.5441176295280457
            }
        }
    ],
    "meshes" : [
        {
            "name" : "Cube",
            "primitives" : [
                {
                    "attributes" : {
                        "POSITION" : 0,
                        "NORMAL" : 1,
                        "TEXCOORD_0" : 2
                    },
                    "indices" : 3,
                    "material" : 0
                }
            ]
        },
        {
            "name" : "Cube.001",
            "primitives" : [
                {
                    "attributes" : {
                        "POSITION" : 4,
                        "NORMAL" : 5,
                        "TEXCOORD_0" : 6
                    },
                    "indices" : 3,
                    "material" : 1
                }
            ]
        }
    ],
    "accessors" : [
        {
            "bufferView" : 0,
            "componentType" : 5126,
            "count" : 1200,
            "max" : [
                1,
                1.3737661838531494,
                1
            ],
            "min" : [
                -1,
                -1,
                -1
            ],
            "type" : "VEC3"
        },
        {
            "bufferView" : 1,
            "componentType" : 5126,
            "count" : 1200,
            "type" : "VEC3"
        },
        {
            "bufferView" : 2,
            "componentType" : 5126,
            "count" : 1200,
            "type" : "VEC2"
        },
        {
            "bufferView" : 3,
            "componentType" : 5123,
            "count" : 2436,
            "type" : "SCALAR"
        },
        {
            "bufferView" : 4,
            "componentType" : 5126,
            "count" : 1200,
            "max" : [
                1,
                1.3737661838531494,
                1
            ],
            "min" : [
                -1,
                -1,
                -1
            ],
            "type" : "VEC3"
        },
        {
            "bufferView" : 5,
            "componentType" : 5126,
            "count" : 1200,
            "type" : "VEC3"
        },
        {
            "bufferView" : 6,
            "componentType" : 5126,
            "count" : 1200,
            "type" : "VEC2"
        }
    ],
    "bufferViews" : [
        {
            "buffer" : 0,
            "byteLength" : 14400,
            "byteOffset" : 0
        },
        {
            "buffer" : 0,
            "byteLength" : 14400,
            "byteOffset" : 14400
        },
        {
            "buffer" : 0,
            "byteLength" : 9600,
            "byteOffset" : 28800
        },
        {
            "buffer" : 0,
            "byteLength" : 4872,
            "byteOffset" : 38400
        },
        {
            "buffer" : 0,
            "byteLength" : 14400,
            "byteOffset" : 43272
        },
        {
            "buffer" : 0,
            "byteLength" : 14400,
            "byteOffset" : 57672
        },
        {
            "buffer" : 0,
            "byteLength" : 9600,
            "byteOffset" : 72072
        }
    ],
    "buffers" : [
        {
            "byteLength" : 81672,
            "uri" : "data:application/octet-stream;base64,"
        }
    ]
}
