{
    "asset" : {
        "generator" : "Khronos glTF Blender I/O v1.7.33",
        "version" : "2.0"
    },
    "scene" : 0,
    "scenes" : [
        {
            "name" : "Scene",
            "nodes" : [
                0
            ]
        }
    ],
    "nodes" : [
        {
            "mesh" : 0,
            "name" : "Plane"
        }
    ],
    "materials" : [
        {
            "doubleSided" : true,
            "name" : "Material.001",
            "pbrMetallicRoughness" : {
                "baseColorFactor" : [
                    0.03411189094185829,
                    0.031069882214069366,
                    0.03139061853289604,
                    1
                ],
                "metallicFactor" : 0.617142915725708,
                "roughnessFactor" : 0.44857144355773926
            }
        },
        {
            "doubleSided" : true,
            "name" : "Material.002",
            "pbrMetallicRoughness" : {
                "baseColorFactor" : [
                    0.01113482378423214,
                    0.01113482378423214,
                    0.01113482378423214,
                    1
                ],
                "metallicFactor" : 0,
                "roughnessFactor" : 0.12285715341567993
            }
        },
        {
            "doubleSided" : true,
            "emissiveFactor" : [
                0.05422322079539299,
                0.49689581990242004,
                1
            ],
            "name" : "Material.003",
            "pbrMetallicRoughness" : {}
        }
    ],
    "meshes" : [
        {
            "name" : "Plane",
            "primitives" : [
                {
                    "attributes" : {
                        "POSITION" : 0,
                        "NORMAL" : 1,
                        "TEXCOORD_0" : 2
                    },
                    "indices" : 3,
                    "material" : 0
                },
                {
                    "attributes" : {
                        "POSITION" : 4,
                        "NORMAL" : 5,
                        "TEXCOORD_0" : 6
                    },
                    "indices" : 7,
                    "material" : 1
                },
                {
                    "attributes" : {
                        "POSITION" : 8,
                        "NORMAL" : 9,
                        "TEXCOORD_0" : 10
                    },
                    "indices" : 11,
                    "material" : 2
                }
            ]
        }
    ],
    "accessors" : [
        {
            "bufferView" : 0,
            "componentType" : 5126,
            "count" : 104,
            "max" : [
                0.364284485578537,
                1.6606639623641968,
                0.364284485578537
            ],
            "min" : [
                -0.364284485578537,
                0,
                -0.364284485578537
            ],
            "type" : "VEC3"
        },
        {
            "bufferView" : 1,
            "componentType" : 5126,
            "count" : 104,
            "type" : "VEC3"
        },
        {
            "bufferView" : 2,
            "componentType" : 5126,
            "count" : 104,
            "type" : "VEC2"
        },
        {
            "bufferView" : 3,
            "componentType" : 5123,
            "count" : 156,
            "type" : "SCALAR"
        },
        {
            "bufferView" : 4,
            "componentType" : 5126,
            "count" : 4,
            "max" : [
                0.17294064164161682,
                1.6537630558013916,
                0.22711288928985596
            ],
            "min" : [
                -0.17294064164161682,
                1.2333509922027588,
                -0.12347298860549927
            ],
            "type" : "VEC3"
        },
        {
            "bufferView" : 5,
            "componentType" : 5126,
            "count" : 4,
            "type" : "VEC3"
        },
        {
            "bufferView" : 6,
            "componentType" : 5126,
            "count" : 4,
            "type" : "VEC2"
        },
        {
            "bufferView" : 7,
            "componentType" : 5123,
            "count" : 6,
            "type" : "SCALAR"
        },
        {
            "bufferView" : 8,
            "componentType" : 5126,
            "count" : 16,
            "max" : [
                0.364284485578537,
                0.0367344431579113,
                0.364284485578537
            ],
            "min" : [
                -0.364284485578537,
                0,
                -0.364284485578537
            ],
            "type" : "VEC3"
        },
        {
            "bufferView" : 9,
            "componentType" : 5126,
            "count" : 16,
            "type" : "VEC3"
        },
        {
            "bufferView" : 10,
            "componentType" : 5126,
            "count" : 16,
            "type" : "VEC2"
        },
        {
            "bufferView" : 11,
            "componentType" : 5123,
            "count" : 24,
            "type" : "SCALAR"
        }
    ],
    "bufferViews" : [
        {
            "buffer" : 0,
            "byteLength" : 1248,
            "byteOffset" : 0
        },
        {
            "buffer" : 0,
            "byteLength" : 1248,
            "byteOffset" : 1248
        },
        {
            "buffer" : 0,
            "byteLength" : 832,
            "byteOffset" : 2496
        },
        {
            "buffer" : 0,
            "byteLength" : 312,
            "byteOffset" : 3328
        },
        {
            "buffer" : 0,
            "byteLength" : 48,
            "byteOffset" : 3640
        },
        {
            "buffer" : 0,
            "byteLength" : 48,
            "byteOffset" : 3688
        },
        {
            "buffer" : 0,
            "byteLength" : 32,
            "byteOffset" : 3736
        },
        {
            "buffer" : 0,
            "byteLength" : 12,
            "byteOffset" : 3768
        },
        {
            "buffer" : 0,
            "byteLength" : 192,
            "byteOffset" : 3780
        },
        {
            "buffer" : 0,
            "byteLength" : 192,
            "byteOffset" : 3972
        },
        {
            "buffer" : 0,
            "byteLength" : 128,
            "byteOffset" : 4164
        },
        {
            "buffer" : 0,
            "byteLength" : 48,
            "byteOffset" : 4292
        }
    ],
    "buffers" : [
        {
            "byteLength" : 4340,
            "uri" : "data:application/octet-stream;base64,"
        }
    ]
}
