{
    "asset" : {
        "generator" : "Khronos glTF Blender I/O v1.6.16",
        "version" : "2.0"
    },
    "scene" : 0,
    "scenes" : [
        {
            "name" : "Scene",
            "nodes" : [
                0,
                1
            ]
        }
    ],
    "nodes" : [
        {
            "mesh" : 0,
            "name" : "Cube",
            "scale" : [
                11.59000015258789,
                3.7699999809265137,
                0.3199999928474426
            ],
            "translation" : [
                0,
                3.746022939682007,
                0
            ]
        },
        {
            "mesh" : 1,
            "name" : "Cube.001",
            "scale" : [
                11.59000015258789,
                3.7699999809265137,
                0.3199999928474426
            ],
            "translation" : [
                23,
                3.746022939682007,
                0
            ]
        }
    ],
    "materials" : [
        {
            "doubleSided" : true,
            "name" : "Material.003",
            "pbrMetallicRoughness" : {
                "baseColorFactor" : [
                    0.023300176486372948,
                    0.02246079035103321,
                    0.025393841788172722,
                    1
                ],
                "metallicFactor" : 0,
                "roughnessFactor" : 0.5
            }
        },
        {
            "doubleSided" : true,
            "name" : "Material.004",
            "pbrMetallicRoughness" : {
                "baseColorFactor" : [
                    0,
                    0.2682955861091614,
                    0.8000000715255737,
                    1
                ],
                "metallicFactor" : 0.43382352590560913,
                "roughnessFactor" : 0
            }
        },
        {
            "doubleSided" : true,
            "name" : "Material.006",
            "pbrMetallicRoughness" : {
                "baseColorFactor" : [
                    0.023300176486372948,
                    0.02246079035103321,
                    0.025393841788172722,
                    1
                ],
                "metallicFactor" : 0,
                "roughnessFactor" : 0.5
            }
        },
        {
            "doubleSided" : true,
            "name" : "Material.005",
            "pbrMetallicRoughness" : {
                "baseColorFactor" : [
                    0,
                    0.2682955861091614,
                    0.8000000715255737,
                    1
                ],
                "metallicFactor" : 0.43382352590560913,
                "roughnessFactor" : 0
            }
        }
    ],
    "meshes" : [
        {
            "name" : "Cube.004",
            "primitives" : [
                {
                    "attributes" : {
                        "POSITION" : 0,
                        "NORMAL" : 1,
                        "TEXCOORD_0" : 2
                    },
                    "indices" : 3,
                    "material" : 0
                },
                {
                    "attributes" : {
                        "POSITION" : 4,
                        "NORMAL" : 5,
                        "TEXCOORD_0" : 6
                    },
                    "indices" : 7,
                    "material" : 1
                }
            ]
        },
        {
            "name" : "Cube.005",
            "primitives" : [
                {
                    "attributes" : {
                        "POSITION" : 8,
                        "NORMAL" : 9,
                        "TEXCOORD_0" : 10
                    },
                    "indices" : 3,
                    "material" : 2
                },
                {
                    "attributes" : {
                        "POSITION" : 11,
                        "NORMAL" : 12,
                        "TEXCOORD_0" : 13
                    },
                    "indices" : 7,
                    "material" : 3
                }
            ]
        }
    ],
    "accessors" : [
        {
            "bufferView" : 0,
            "componentType" : 5126,
            "count" : 2339,
            "max" : [
                1,
                1,
                2.3437132835388184
            ],
            "min" : [
                -1,
                -1,
                -1
            ],
            "type" : "VEC3"
        },
        {
            "bufferView" : 1,
            "componentType" : 5126,
            "count" : 2339,
            "type" : "VEC3"
        },
        {
            "bufferView" : 2,
            "componentType" : 5126,
            "count" : 2339,
            "type" : "VEC2"
        },
        {
            "bufferView" : 3,
            "componentType" : 5123,
            "count" : 4254,
            "type" : "SCALAR"
        },
        {
            "bufferView" : 4,
            "componentType" : 5126,
            "count" : 76,
            "max" : [
                0.8613309860229492,
                0.8812727332115173,
                1.9794279336929321
            ],
            "min" : [
                -0.8613309860229492,
                -0.8812727332115173,
                0.3907827138900757
            ],
            "type" : "VEC3"
        },
        {
            "bufferView" : 5,
            "componentType" : 5126,
            "count" : 76,
            "type" : "VEC3"
        },
        {
            "bufferView" : 6,
            "componentType" : 5126,
            "count" : 76,
            "type" : "VEC2"
        },
        {
            "bufferView" : 7,
            "componentType" : 5123,
            "count" : 114,
            "type" : "SCALAR"
        },
        {
            "bufferView" : 8,
            "componentType" : 5126,
            "count" : 2339,
            "max" : [
                1,
                1,
                2.3437132835388184
            ],
            "min" : [
                -1,
                -1,
                -1
            ],
            "type" : "VEC3"
        },
        {
            "bufferView" : 9,
            "componentType" : 5126,
            "count" : 2339,
            "type" : "VEC3"
        },
        {
            "bufferView" : 10,
            "componentType" : 5126,
            "count" : 2339,
            "type" : "VEC2"
        },
        {
            "bufferView" : 11,
            "componentType" : 5126,
            "count" : 76,
            "max" : [
                0.8613309860229492,
                0.8812727332115173,
                1.9794279336929321
            ],
            "min" : [
                -0.8613309860229492,
                -0.8812727332115173,
                0.3907827138900757
            ],
            "type" : "VEC3"
        },
        {
            "bufferView" : 12,
            "componentType" : 5126,
            "count" : 76,
            "type" : "VEC3"
        },
        {
            "bufferView" : 13,
            "componentType" : 5126,
            "count" : 76,
            "type" : "VEC2"
        }
    ],
    "bufferViews" : [
        {
            "buffer" : 0,
            "byteLength" : 28068,
            "byteOffset" : 0
        },
        {
            "buffer" : 0,
            "byteLength" : 28068,
            "byteOffset" : 28068
        },
        {
            "buffer" : 0,
            "byteLength" : 18712,
            "byteOffset" : 56136
        },
        {
            "buffer" : 0,
            "byteLength" : 8508,
            "byteOffset" : 74848
        },
        {
            "buffer" : 0,
            "byteLength" : 912,
            "byteOffset" : 83356
        },
        {
            "buffer" : 0,
            "byteLength" : 912,
            "byteOffset" : 84268
        },
        {
            "buffer" : 0,
            "byteLength" : 608,
            "byteOffset" : 85180
        },
        {
            "buffer" : 0,
            "byteLength" : 228,
            "byteOffset" : 85788
        },
        {
            "buffer" : 0,
            "byteLength" : 28068,
            "byteOffset" : 86016
        },
        {
            "buffer" : 0,
            "byteLength" : 28068,
            "byteOffset" : 114084
        },
        {
            "buffer" : 0,
            "byteLength" : 18712,
            "byteOffset" : 142152
        },
        {
            "buffer" : 0,
            "byteLength" : 912,
            "byteOffset" : 160864
        },
        {
            "buffer" : 0,
            "byteLength" : 912,
            "byteOffset" : 161776
        },
        {
            "buffer" : 0,
            "byteLength" : 608,
            "byteOffset" : 162688
        }
    ],
    "buffers" : [
        {
            "byteLength" : 163296,
            "uri" : "data:application/octet-stream;base64,"
        }
    ]
}
