{
    "asset" : {
        "generator" : "Khronos glTF Blender I/O v1.6.16",
        "version" : "2.0"
    },
    "scene" : 0,
    "scenes" : [
        {
            "name" : "Scene",
            "nodes" : [
                0,
                1,
                2,
                3,
                4
            ]
        }
    ],
    "nodes" : [
        {
            "name" : "Light",
            "rotation" : [
                0.16907575726509094,
                0.7558803558349609,
                -0.27217137813568115,
                0.570947527885437
            ],
            "translation" : [
                -1.522423267364502,
                5.903861999511719,
                -1.0054539442062378
            ]
        },
        {
            "name" : "Camera",
            "rotation" : [
                0.483536034822464,
                0.33687159419059753,
                -0.20870360732078552,
                0.7804827094078064
            ],
            "translation" : [
                7.358891487121582,
                4.958309173583984,
                6.925790786743164
            ]
        },
        {
            "mesh" : 0,
            "name" : "Curve",
            "scale" : [
                27.989532470703125,
                27.989532470703125,
                27.989532470703125
            ],
            "translation" : [
                -1.2830626964569092,
                0,
                1.362170696258545
            ]
        },
        {
            "mesh" : 1,
            "name" : "Curve.001",
            "scale" : [
                27.989532470703125,
                27.989532470703125,
                27.989532470703125
            ],
            "translation" : [
                -1.2830626964569092,
                0,
                1.362170696258545
            ]
        },
        {
            "mesh" : 2,
            "name" : "Curve.002",
            "scale" : [
                27.989532470703125,
                27.989532470703125,
                27.989532470703125
            ],
            "translation" : [
                -1.2830626964569092,
                0,
                1.362170696258545
            ]
        }
    ],
    "materials" : [
        {
            "doubleSided" : true,
            "name" : "SVGMat",
            "pbrMetallicRoughness" : {
                "baseColorFactor" : [
                    0,
                    0,
                    0,
                    1
                ],
                "metallicFactor" : 0,
                "roughnessFactor" : 0.4000000059604645
            }
        }
    ],
    "meshes" : [
        {
            "name" : "Curve",
            "primitives" : [
                {
                    "attributes" : {
                        "POSITION" : 0,
                        "NORMAL" : 1,
                        "TEXCOORD_0" : 2
                    },
                    "indices" : 3,
                    "material" : 0
                }
            ]
        },
        {
            "name" : "Curve.001",
            "primitives" : [
                {
                    "attributes" : {
                        "POSITION" : 4,
                        "NORMAL" : 5,
                        "TEXCOORD_0" : 6
                    },
                    "indices" : 7,
                    "material" : 0
                }
            ]
        },
        {
            "name" : "Curve.002",
            "primitives" : [
                {
                    "attributes" : {
                        "POSITION" : 8,
                        "NORMAL" : 9,
                        "TEXCOORD_0" : 10
                    },
                    "indices" : 11,
                    "material" : 0
                }
            ]
        }
    ],
    "accessors" : [
        {
            "bufferView" : 0,
            "componentType" : 5126,
            "count" : 1368,
            "max" : [
                0.053793489933013916,
                0.007089569699019194,
                -0.07584685832262039
            ],
            "min" : [
                0.04379267245531082,
                0,
                -0.08378623425960541
            ],
            "type" : "VEC3"
        },
        {
            "bufferView" : 1,
            "componentType" : 5126,
            "count" : 1368,
            "type" : "VEC3"
        },
        {
            "bufferView" : 2,
            "componentType" : 5126,
            "count" : 1368,
            "type" : "VEC2"
        },
        {
            "bufferView" : 3,
            "componentType" : 5123,
            "count" : 2172,
            "type" : "SCALAR"
        },
        {
            "bufferView" : 4,
            "componentType" : 5126,
            "count" : 5614,
            "max" : [
                0.09731227159500122,
                0.007089569699019194,
                -0.002509884536266327
            ],
            "min" : [
                8.502101991325617e-06,
                0,
                -0.094768226146698
            ],
            "type" : "VEC3"
        },
        {
            "bufferView" : 5,
            "componentType" : 5126,
            "count" : 5614,
            "type" : "VEC3"
        },
        {
            "bufferView" : 6,
            "componentType" : 5126,
            "count" : 5614,
            "type" : "VEC2"
        },
        {
            "bufferView" : 7,
            "componentType" : 5123,
            "count" : 8808,
            "type" : "SCALAR"
        },
        {
            "bufferView" : 8,
            "componentType" : 5126,
            "count" : 552,
            "max" : [
                0.07485517114400864,
                0.007089569699019194,
                -0.0535719208419323
            ],
            "min" : [
                0.06921087205410004,
                0,
                -0.057710517197847366
            ],
            "type" : "VEC3"
        },
        {
            "bufferView" : 9,
            "componentType" : 5126,
            "count" : 552,
            "type" : "VEC3"
        },
        {
            "bufferView" : 10,
            "componentType" : 5126,
            "count" : 552,
            "type" : "VEC2"
        },
        {
            "bufferView" : 11,
            "componentType" : 5123,
            "count" : 864,
            "type" : "SCALAR"
        }
    ],
    "bufferViews" : [
        {
            "buffer" : 0,
            "byteLength" : 16416,
            "byteOffset" : 0
        },
        {
            "buffer" : 0,
            "byteLength" : 16416,
            "byteOffset" : 16416
        },
        {
            "buffer" : 0,
            "byteLength" : 10944,
            "byteOffset" : 32832
        },
        {
            "buffer" : 0,
            "byteLength" : 4344,
            "byteOffset" : 43776
        },
        {
            "buffer" : 0,
            "byteLength" : 67368,
            "byteOffset" : 48120
        },
        {
            "buffer" : 0,
            "byteLength" : 67368,
            "byteOffset" : 115488
        },
        {
            "buffer" : 0,
            "byteLength" : 44912,
            "byteOffset" : 182856
        },
        {
            "buffer" : 0,
            "byteLength" : 17616,
            "byteOffset" : 227768
        },
        {
            "buffer" : 0,
            "byteLength" : 6624,
            "byteOffset" : 245384
        },
        {
            "buffer" : 0,
            "byteLength" : 6624,
            "byteOffset" : 252008
        },
        {
            "buffer" : 0,
            "byteLength" : 4416,
            "byteOffset" : 258632
        },
        {
            "buffer" : 0,
            "byteLength" : 1728,
            "byteOffset" : 263048
        }
    ],
    "buffers" : [
        {
            "byteLength" : 264776,
            "uri" : "data:application/octet-stream;base64,"
        }
    ]
}
