{
    "asset" : {
        "generator" : "Khronos glTF Blender I/O v1.6.16",
        "version" : "2.0"
    },
    "scene" : 0,
    "scenes" : [
        {
            "name" : "Scene",
            "nodes" : [
                0,
                1,
                2,
                3,
                4,
                5,
                6
            ]
        }
    ],
    "nodes" : [
        {
            "name" : "Camera",
            "rotation" : [
                0.483536034822464,
                0.33687159419059753,
                -0.20870360732078552,
                0.7804827094078064
            ],
            "translation" : [
                7.358891487121582,
                4.958309173583984,
                6.925790786743164
            ]
        },
        {
            "mesh" : 0,
            "name" : "Curve.003",
            "scale" : [
                17.61003303527832,
                17.61003303527832,
                17.61003303527832
            ],
            "translation" : [
                -1.2861098051071167,
                0,
                0.5652412176132202
            ]
        },
        {
            "mesh" : 1,
            "name" : "Curve.004",
            "scale" : [
                17.61003303527832,
                17.61003303527832,
                17.61003303527832
            ],
            "translation" : [
                -1.2861098051071167,
                0,
                0.5652412176132202
            ]
        },
        {
            "mesh" : 2,
            "name" : "Curve.005",
            "scale" : [
                17.61003303527832,
                17.61003303527832,
                17.61003303527832
            ],
            "translation" : [
                -1.2861098051071167,
                0,
                0.5652412176132202
            ]
        },
        {
            "mesh" : 3,
            "name" : "Curve.006",
            "scale" : [
                17.61003303527832,
                17.61003303527832,
                17.61003303527832
            ],
            "translation" : [
                -1.2861098051071167,
                0,
                0.5652412176132202
            ]
        },
        {
            "mesh" : 4,
            "name" : "Curve.007",
            "scale" : [
                17.61003303527832,
                17.61003303527832,
                17.61003303527832
            ],
            "translation" : [
                -1.2861098051071167,
                0,
                0.5652412176132202
            ]
        },
        {
            "mesh" : 5,
            "name" : "Curve.008",
            "scale" : [
                17.61003303527832,
                17.61003303527832,
                17.61003303527832
            ],
            "translation" : [
                -1.2861098051071167,
                0,
                0.5652412176132202
            ]
        }
    ],
    "materials" : [
        {
            "doubleSided" : true,
            "name" : "SVGMat.002",
            "pbrMetallicRoughness" : {
                "baseColorFactor" : [
                    0,
                    0,
                    0,
                    1
                ],
                "metallicFactor" : 0,
                "roughnessFactor" : 0.4000000059604645
            }
        }
    ],
    "meshes" : [
        {
            "name" : "Curve.003",
            "primitives" : [
                {
                    "attributes" : {
                        "POSITION" : 0,
                        "NORMAL" : 1,
                        "TEXCOORD_0" : 2
                    },
                    "indices" : 3,
                    "material" : 0
                }
            ]
        },
        {
            "name" : "Curve.004",
            "primitives" : [
                {
                    "attributes" : {
                        "POSITION" : 4,
                        "NORMAL" : 5,
                        "TEXCOORD_0" : 6
                    },
                    "indices" : 7,
                    "material" : 0
                }
            ]
        },
        {
            "name" : "Curve.005",
            "primitives" : [
                {
                    "attributes" : {
                        "POSITION" : 8,
                        "NORMAL" : 9,
                        "TEXCOORD_0" : 10
                    },
                    "indices" : 11,
                    "material" : 0
                }
            ]
        },
        {
            "name" : "Curve.006",
            "primitives" : [
                {
                    "attributes" : {
                        "POSITION" : 12,
                        "NORMAL" : 13,
                        "TEXCOORD_0" : 14
                    },
                    "indices" : 15,
                    "material" : 0
                }
            ]
        },
        {
            "name" : "Curve.007",
            "primitives" : [
                {
                    "attributes" : {
                        "POSITION" : 16,
                        "NORMAL" : 17,
                        "TEXCOORD_0" : 18
                    },
                    "indices" : 19,
                    "material" : 0
                }
            ]
        },
        {
            "name" : "Curve.008",
            "primitives" : [
                {
                    "attributes" : {
                        "POSITION" : 20,
                        "NORMAL" : 21,
                        "TEXCOORD_0" : 22
                    },
                    "indices" : 23,
                    "material" : 0
                }
            ]
        }
    ],
    "accessors" : [
        {
            "bufferView" : 0,
            "componentType" : 5126,
            "count" : 366,
            "max" : [
                0.12303334474563599,
                0.010731643065810204,
                -0.05876975506544113
            ],
            "min" : [
                0.09387524425983429,
                0,
                -0.08792170137166977
            ],
            "type" : "VEC3"
        },
        {
            "bufferView" : 1,
            "componentType" : 5126,
            "count" : 366,
            "type" : "VEC3"
        },
        {
            "bufferView" : 2,
            "componentType" : 5126,
            "count" : 366,
            "type" : "VEC2"
        },
        {
            "bufferView" : 3,
            "componentType" : 5123,
            "count" : 564,
            "type" : "SCALAR"
        },
        {
            "bufferView" : 4,
            "componentType" : 5126,
            "count" : 2268,
            "max" : [
                0.1504448503255844,
                0.010731643065810204,
                2.682209014892578e-07
            ],
            "min" : [
                0.0005483994027599692,
                0,
                -0.09054961800575256
            ],
            "type" : "VEC3"
        },
        {
            "bufferView" : 5,
            "componentType" : 5126,
            "count" : 2268,
            "type" : "VEC3"
        },
        {
            "bufferView" : 6,
            "componentType" : 5126,
            "count" : 2268,
            "type" : "VEC2"
        },
        {
            "bufferView" : 7,
            "componentType" : 5123,
            "count" : 3672,
            "type" : "SCALAR"
        },
        {
            "bufferView" : 8,
            "componentType" : 5126,
            "count" : 488,
            "max" : [
                0.13462980091571808,
                0.010731643065810204,
                -0.0875602439045906
            ],
            "min" : [
                0.1292324811220169,
                0,
                -0.13410194218158722
            ],
            "type" : "VEC3"
        },
        {
            "bufferView" : 9,
            "componentType" : 5126,
            "count" : 488,
            "type" : "VEC3"
        },
        {
            "bufferView" : 10,
            "componentType" : 5126,
            "count" : 488,
            "type" : "VEC2"
        },
        {
            "bufferView" : 11,
            "componentType" : 5123,
            "count" : 852,
            "type" : "SCALAR"
        },
        {
            "bufferView" : 12,
            "componentType" : 5126,
            "count" : 418,
            "max" : [
                0.12515710294246674,
                0.010731643065810204,
                -0.10442177951335907
            ],
            "min" : [
                0.11975978314876556,
                0,
                -0.15096601843833923
            ],
            "type" : "VEC3"
        },
        {
            "bufferView" : 13,
            "componentType" : 5126,
            "count" : 418,
            "type" : "VEC3"
        },
        {
            "bufferView" : 14,
            "componentType" : 5126,
            "count" : 418,
            "type" : "VEC2"
        },
        {
            "bufferView" : 15,
            "componentType" : 5123,
            "count" : 720,
            "type" : "SCALAR"
        },
        {
            "bufferView" : 16,
            "componentType" : 5126,
            "count" : 428,
            "max" : [
                0.03795035183429718,
                0.010731643065810204,
                -0.05622036010026932
            ],
            "min" : [
                0.03255302459001541,
                0,
                -0.10276177525520325
            ],
            "type" : "VEC3"
        },
        {
            "bufferView" : 17,
            "componentType" : 5126,
            "count" : 428,
            "type" : "VEC3"
        },
        {
            "bufferView" : 18,
            "componentType" : 5126,
            "count" : 428,
            "type" : "VEC2"
        },
        {
            "bufferView" : 19,
            "componentType" : 5123,
            "count" : 720,
            "type" : "SCALAR"
        },
        {
            "bufferView" : 20,
            "componentType" : 5126,
            "count" : 416,
            "max" : [
                0.04742305353283882,
                0.010731643065810204,
                -0.0730816200375557
            ],
            "min" : [
                0.042025722563266754,
                0,
                -0.11962585896253586
            ],
            "type" : "VEC3"
        },
        {
            "bufferView" : 21,
            "componentType" : 5126,
            "count" : 416,
            "type" : "VEC3"
        },
        {
            "bufferView" : 22,
            "componentType" : 5126,
            "count" : 416,
            "type" : "VEC2"
        },
        {
            "bufferView" : 23,
            "componentType" : 5123,
            "count" : 720,
            "type" : "SCALAR"
        }
    ],
    "bufferViews" : [
        {
            "buffer" : 0,
            "byteLength" : 4392,
            "byteOffset" : 0
        },
        {
            "buffer" : 0,
            "byteLength" : 4392,
            "byteOffset" : 4392
        },
        {
            "buffer" : 0,
            "byteLength" : 2928,
            "byteOffset" : 8784
        },
        {
            "buffer" : 0,
            "byteLength" : 1128,
            "byteOffset" : 11712
        },
        {
            "buffer" : 0,
            "byteLength" : 27216,
            "byteOffset" : 12840
        },
        {
            "buffer" : 0,
            "byteLength" : 27216,
            "byteOffset" : 40056
        },
        {
            "buffer" : 0,
            "byteLength" : 18144,
            "byteOffset" : 67272
        },
        {
            "buffer" : 0,
            "byteLength" : 7344,
            "byteOffset" : 85416
        },
        {
            "buffer" : 0,
            "byteLength" : 5856,
            "byteOffset" : 92760
        },
        {
            "buffer" : 0,
            "byteLength" : 5856,
            "byteOffset" : 98616
        },
        {
            "buffer" : 0,
            "byteLength" : 3904,
            "byteOffset" : 104472
        },
        {
            "buffer" : 0,
            "byteLength" : 1704,
            "byteOffset" : 108376
        },
        {
            "buffer" : 0,
            "byteLength" : 5016,
            "byteOffset" : 110080
        },
        {
            "buffer" : 0,
            "byteLength" : 5016,
            "byteOffset" : 115096
        },
        {
            "buffer" : 0,
            "byteLength" : 3344,
            "byteOffset" : 120112
        },
        {
            "buffer" : 0,
            "byteLength" : 1440,
            "byteOffset" : 123456
        },
        {
            "buffer" : 0,
            "byteLength" : 5136,
            "byteOffset" : 124896
        },
        {
            "buffer" : 0,
            "byteLength" : 5136,
            "byteOffset" : 130032
        },
        {
            "buffer" : 0,
            "byteLength" : 3424,
            "byteOffset" : 135168
        },
        {
            "buffer" : 0,
            "byteLength" : 1440,
            "byteOffset" : 138592
        },
        {
            "buffer" : 0,
            "byteLength" : 4992,
            "byteOffset" : 140032
        },
        {
            "buffer" : 0,
            "byteLength" : 4992,
            "byteOffset" : 145024
        },
        {
            "buffer" : 0,
            "byteLength" : 3328,
            "byteOffset" : 150016
        },
        {
            "buffer" : 0,
            "byteLength" : 1440,
            "byteOffset" : 153344
        }
    ],
    "buffers" : [
        {
            "byteLength" : 154784,
            "uri" : "data:application/octet-stream;base64,"
        }
    ]
}
