{
    "asset" : {
        "generator" : "Khronos glTF Blender I/O v1.6.16",
        "version" : "2.0"
    },
    "scene" : 0,
    "scenes" : [
        {
            "name" : "Scene",
            "nodes" : [
                0,
                1,
                2,
                3
            ]
        }
    ],
    "nodes" : [
        {
            "name" : "Camera",
            "rotation" : [
                0.483536034822464,
                0.33687159419059753,
                -0.20870360732078552,
                0.7804827094078064
            ],
            "translation" : [
                7.358891487121582,
                4.958309173583984,
                6.925790786743164
            ]
        },
        {
            "mesh" : 0,
            "name" : "Curve.009",
            "scale" : [
                17.924945831298828,
                17.924945831298828,
                17.924945831298828
            ],
            "translation" : [
                -1.097425937652588,
                0,
                1.1388931274414062
            ]
        },
        {
            "mesh" : 1,
            "name" : "Curve.010",
            "scale" : [
                17.924945831298828,
                17.924945831298828,
                17.924945831298828
            ],
            "translation" : [
                -1.097425937652588,
                0,
                1.1388931274414062
            ]
        },
        {
            "mesh" : 2,
            "name" : "Curve.011",
            "scale" : [
                17.924945831298828,
                17.924945831298828,
                17.924945831298828
            ],
            "translation" : [
                -1.097425937652588,
                0,
                1.1388931274414062
            ]
        }
    ],
    "materials" : [
        {
            "doubleSided" : true,
            "name" : "SVGMat.003",
            "pbrMetallicRoughness" : {
                "baseColorFactor" : [
                    0,
                    0,
                    0,
                    1
                ],
                "metallicFactor" : 0,
                "roughnessFactor" : 0.4000000059604645
            }
        }
    ],
    "meshes" : [
        {
            "name" : "Curve.009",
            "primitives" : [
                {
                    "attributes" : {
                        "POSITION" : 0,
                        "NORMAL" : 1,
                        "TEXCOORD_0" : 2
                    },
                    "indices" : 3,
                    "material" : 0
                }
            ]
        },
        {
            "name" : "Curve.010",
            "primitives" : [
                {
                    "attributes" : {
                        "POSITION" : 4,
                        "NORMAL" : 5,
                        "TEXCOORD_0" : 6
                    },
                    "indices" : 7,
                    "material" : 0
                }
            ]
        },
        {
            "name" : "Curve.011",
            "primitives" : [
                {
                    "attributes" : {
                        "POSITION" : 8,
                        "NORMAL" : 9,
                        "TEXCOORD_0" : 10
                    },
                    "indices" : 11,
                    "material" : 0
                }
            ]
        }
    ],
    "accessors" : [
        {
            "bufferView" : 0,
            "componentType" : 5126,
            "count" : 308,
            "max" : [
                0.13219615817070007,
                0.01112222671508789,
                -0.12522266805171967
            ],
            "min" : [
                0.1252499669790268,
                0,
                -0.13216738402843475
            ],
            "type" : "VEC3"
        },
        {
            "bufferView" : 1,
            "componentType" : 5126,
            "count" : 308,
            "type" : "VEC3"
        },
        {
            "bufferView" : 2,
            "componentType" : 5126,
            "count" : 308,
            "type" : "VEC2"
        },
        {
            "bufferView" : 3,
            "componentType" : 5123,
            "count" : 564,
            "type" : "SCALAR"
        },
        {
            "bufferView" : 4,
            "componentType" : 5126,
            "count" : 744,
            "max" : [
                0.10887791216373444,
                0.01112222671508789,
                -0.01430453360080719
            ],
            "min" : [
                0.014307830482721329,
                0,
                -0.10885491967201233
            ],
            "type" : "VEC3"
        },
        {
            "bufferView" : 5,
            "componentType" : 5126,
            "count" : 744,
            "type" : "VEC3"
        },
        {
            "bufferView" : 6,
            "componentType" : 5126,
            "count" : 744,
            "type" : "VEC2"
        },
        {
            "bufferView" : 7,
            "componentType" : 5123,
            "count" : 1152,
            "type" : "SCALAR"
        },
        {
            "bufferView" : 8,
            "componentType" : 5126,
            "count" : 2176,
            "max" : [
                0.14450044929981232,
                0.01112222671508789,
                0
            ],
            "min" : [
                2.8222800096955325e-07,
                0,
                -0.14447021484375
            ],
            "type" : "VEC3"
        },
        {
            "bufferView" : 9,
            "componentType" : 5126,
            "count" : 2176,
            "type" : "VEC3"
        },
        {
            "bufferView" : 10,
            "componentType" : 5126,
            "count" : 2176,
            "type" : "VEC2"
        },
        {
            "bufferView" : 11,
            "componentType" : 5123,
            "count" : 3492,
            "type" : "SCALAR"
        }
    ],
    "bufferViews" : [
        {
            "buffer" : 0,
            "byteLength" : 3696,
            "byteOffset" : 0
        },
        {
            "buffer" : 0,
            "byteLength" : 3696,
            "byteOffset" : 3696
        },
        {
            "buffer" : 0,
            "byteLength" : 2464,
            "byteOffset" : 7392
        },
        {
            "buffer" : 0,
            "byteLength" : 1128,
            "byteOffset" : 9856
        },
        {
            "buffer" : 0,
            "byteLength" : 8928,
            "byteOffset" : 10984
        },
        {
            "buffer" : 0,
            "byteLength" : 8928,
            "byteOffset" : 19912
        },
        {
            "buffer" : 0,
            "byteLength" : 5952,
            "byteOffset" : 28840
        },
        {
            "buffer" : 0,
            "byteLength" : 2304,
            "byteOffset" : 34792
        },
        {
            "buffer" : 0,
            "byteLength" : 26112,
            "byteOffset" : 37096
        },
        {
            "buffer" : 0,
            "byteLength" : 26112,
            "byteOffset" : 63208
        },
        {
            "buffer" : 0,
            "byteLength" : 17408,
            "byteOffset" : 89320
        },
        {
            "buffer" : 0,
            "byteLength" : 6984,
            "byteOffset" : 106728
        }
    ],
    "buffers" : [
        {
            "byteLength" : 113712,
            "uri" : "data:application/octet-stream;base64,"
        }
    ]
}
