# Blender v2.93.6 OBJ File: 'Rebus_2_Text_2.blend'
# www.blender.org
mtllib Rebus_2_Text_2.mtl
o Text.001
v 1.711715 0.201514 0.143039
v 1.711715 0.201514 0.737039
v 1.613715 0.201514 0.737039
v 1.613715 0.201514 0.143039
v 1.377715 0.201514 0.143039
v 1.377715 0.201514 0.055039
v 1.947715 0.201514 0.055039
v 1.947715 0.201514 0.143039
v 1.304715 0.201514 0.316039
v 0.832715 0.201514 0.316039
v 0.832715 0.201514 0.234039
v 1.304715 0.201514 0.234039
v 1.304715 0.201514 0.534039
v 0.832715 0.201514 0.534039
v 0.832715 0.201514 0.452039
v 1.304715 0.201514 0.452039
v 0.467715 0.201514 0.743039
v 0.172715 0.201514 0.055039
v 0.270715 0.201514 0.055039
v 0.475715 0.201514 0.534039
v 0.679715 0.201514 0.055039
v 0.776715 0.201514 0.055039
v 0.487715 0.201514 0.743039
v 1.711715 0.001514 0.143039
v 1.711715 0.001514 0.737039
v 1.613715 0.001514 0.737039
v 1.613715 0.001514 0.143039
v 1.377715 0.001514 0.143039
v 1.377715 0.001514 0.055039
v 1.947715 0.001514 0.055039
v 1.947715 0.001514 0.143039
v 1.304715 0.001514 0.316039
v 0.832715 0.001514 0.316039
v 0.832715 0.001514 0.234039
v 1.304715 0.001514 0.234039
v 1.304715 0.001514 0.534039
v 0.832715 0.001514 0.534039
v 0.832715 0.001514 0.452039
v 1.304715 0.001514 0.452039
v 0.467715 0.001514 0.743039
v 0.172715 0.001514 0.055039
v 0.270715 0.001514 0.055039
v 0.475715 0.001514 0.534039
v 0.679715 0.001514 0.055039
v 0.776715 0.001514 0.055039
v 0.487715 0.001514 0.743039
v 0.467715 0.001514 0.743039
v 0.467715 0.201514 0.743039
v 0.172715 0.001514 0.055039
v 0.172715 0.201514 0.055039
v 0.270715 0.001514 0.055039
v 0.270715 0.201514 0.055039
v 0.475715 0.001514 0.534039
v 0.475715 0.201514 0.534039
v 0.679715 0.001514 0.055039
v 0.679715 0.201514 0.055039
v 0.776715 0.001514 0.055039
v 0.776715 0.201514 0.055039
v 0.487715 0.001514 0.743039
v 0.487715 0.201514 0.743039
v 1.304715 0.001514 0.316039
v 1.304715 0.201514 0.316039
v 0.832715 0.001514 0.316039
v 0.832715 0.201514 0.316039
v 0.832715 0.001514 0.234039
v 0.832715 0.201514 0.234039
v 1.304715 0.001514 0.234039
v 1.304715 0.201514 0.234039
v 1.304715 0.001514 0.534039
v 1.304715 0.201514 0.534039
v 0.832715 0.001514 0.534039
v 0.832715 0.201514 0.534039
v 0.832715 0.001514 0.452039
v 0.832715 0.201514 0.452039
v 1.304715 0.001514 0.452039
v 1.304715 0.201514 0.452039
v 1.711715 0.001514 0.143039
v 1.711715 0.201514 0.143039
v 1.711715 0.001514 0.737039
v 1.711715 0.201514 0.737039
v 1.613715 0.001514 0.737039
v 1.613715 0.201514 0.737039
v 1.613715 0.001514 0.143039
v 1.613715 0.201514 0.143039
v 1.377715 0.001514 0.143039
v 1.377715 0.201514 0.143039
v 1.377715 0.001514 0.055039
v 1.377715 0.201514 0.055039
v 1.947715 0.001514 0.055039
v 1.947715 0.201514 0.055039
v 1.947715 0.001514 0.143039
v 1.947715 0.201514 0.143039
vt 0.571429 0.000000
vt 0.857143 0.000000
vt 0.714286 0.000000
vt 1.000000 0.000000
vt 0.428571 0.000000
vt 0.285714 0.000000
vt 0.000000 0.000000
vt 0.142857 0.000000
vt 0.714286 0.000000
vt 1.000000 0.000000
vt 0.857143 0.000000
vt 0.571429 0.000000
vt 0.142857 0.000000
vt 0.428571 0.000000
vt 0.285714 0.000000
vt 0.000000 0.000000
vt 0.000000 0.000000
vt 0.333333 0.000000
vt 0.166667 0.000000
vt 0.500000 0.000000
vt 0.833333 0.000000
vt 0.666667 0.000000
vt 1.000000 0.000000
vt 0.571429 0.000000
vt 0.714286 0.000000
vt 0.857143 0.000000
vt 1.000000 0.000000
vt 0.428571 0.000000
vt 0.285714 0.000000
vt 0.000000 0.000000
vt 0.142857 0.000000
vt 0.714286 0.000000
vt 0.857143 0.000000
vt 1.000000 0.000000
vt 0.571429 0.000000
vt 0.142857 0.000000
vt 0.285714 0.000000
vt 0.428571 0.000000
vt 0.000000 0.000000
vt 0.000000 0.000000
vt 0.166667 0.000000
vt 0.333333 0.000000
vt 0.500000 0.000000
vt 0.666667 0.000000
vt 0.833333 0.000000
vt 1.000000 0.000000
vt 0.000000 1.000000
vt 0.142857 1.000000
vt 0.142857 0.000000
vt 0.000000 0.000000
vt 0.285714 1.000000
vt 0.285714 0.000000
vt 0.428571 1.000000
vt 0.428571 0.000000
vt 0.571429 1.000000
vt 0.571429 0.000000
vt 0.714286 1.000000
vt 0.714286 0.000000
vt 0.857143 1.000000
vt 0.857143 0.000000
vt 1.000000 1.000000
vt 1.000000 0.000000
vt 0.000000 1.000000
vt 0.250000 1.000000
vt 0.250000 0.000000
vt 0.000000 0.000000
vt 0.500000 1.000000
vt 0.500000 0.000000
vt 0.750000 1.000000
vt 0.750000 0.000000
vt 1.000000 1.000000
vt 1.000000 0.000000
vt 0.000000 1.000000
vt 0.250000 1.000000
vt 0.250000 0.000000
vt 0.000000 0.000000
vt 0.500000 1.000000
vt 0.500000 0.000000
vt 0.750000 1.000000
vt 0.750000 0.000000
vt 1.000000 1.000000
vt 1.000000 0.000000
vt 0.000000 1.000000
vt 0.125000 1.000000
vt 0.125000 0.000000
vt 0.000000 0.000000
vt 0.250000 1.000000
vt 0.250000 0.000000
vt 0.375000 1.000000
vt 0.375000 0.000000
vt 0.500000 1.000000
vt 0.500000 0.000000
vt 0.625000 1.000000
vt 0.625000 0.000000
vt 0.750000 1.000000
vt 0.750000 0.000000
vt 0.875000 1.000000
vt 0.875000 0.000000
vt 1.000000 1.000000
vt 1.000000 0.000000
vn 0.0000 1.0000 0.0000
vn 0.0000 0.0000 1.0000
vn 0.0000 -1.0000 0.0000
vn -0.5504 0.0000 0.8349
vn -0.8349 0.0000 -0.5504
vn 0.5507 0.0000 -0.8347
vn -0.0009 0.0000 -1.0000
vn -0.5514 0.0000 -0.8342
vn 0.8328 0.0000 -0.5535
vn 0.5535 0.0000 0.8328
vn 0.7071 0.0000 0.7071
vn -0.7071 0.0000 0.7071
vn -0.7071 0.0000 -0.7071
vn 0.7071 0.0000 -0.7071
usemtl None
s off
f 5/1/1 7/2/1 6/3/1
f 5/1/1 8/4/1 7/2/1
f 4/5/2 8/4/2 5/1/2
f 3/6/1 1/7/1 4/5/1
f 1/7/2 8/4/2 4/5/2
f 3/6/1 2/8/1 1/7/1
f 14/9/1 16/10/1 15/11/1
f 14/9/1 13/12/1 16/10/1
f 10/13/1 12/14/1 11/15/1
f 10/13/1 9/16/1 12/14/1
f 17/17/1 19/18/1 18/19/1
f 17/17/1 20/20/1 19/18/1
f 20/20/1 22/21/1 21/22/1
f 20/20/1 23/23/1 22/21/1
f 17/17/1 23/23/1 20/20/1
f 28/24/3 29/25/3 30/26/3
f 28/24/3 30/26/3 31/27/3
f 27/28/2 28/24/2 31/27/2
f 26/29/3 27/28/3 24/30/3
f 24/30/2 27/28/2 31/27/2
f 26/29/3 24/30/3 25/31/3
f 37/32/3 38/33/3 39/34/3
f 37/32/3 39/34/3 36/35/3
f 33/36/3 34/37/3 35/38/3
f 33/36/3 35/38/3 32/39/3
f 40/40/3 41/41/3 42/42/3
f 40/40/3 42/42/3 43/43/3
f 43/43/3 44/44/3 45/45/3
f 43/43/3 45/45/3 46/46/3
f 40/40/3 43/43/3 46/46/3
s 1
f 48/47/4 50/48/5 49/49/5 47/50/4
f 50/48/5 52/51/6 51/52/6 49/49/5
f 52/51/6 54/53/7 53/54/7 51/52/6
f 54/53/7 56/55/8 55/56/8 53/54/7
f 56/55/8 58/57/9 57/58/9 55/56/8
f 58/57/9 60/59/10 59/60/10 57/58/9
f 60/59/10 48/61/4 47/62/4 59/60/10
f 62/63/11 64/64/12 63/65/12 61/66/11
f 64/64/12 66/67/13 65/68/13 63/65/12
f 66/67/13 68/69/14 67/70/14 65/68/13
f 68/69/14 62/71/11 61/72/11 67/70/14
f 70/73/11 72/74/12 71/75/12 69/76/11
f 72/74/12 74/77/13 73/78/13 71/75/12
f 74/77/13 76/79/14 75/80/14 73/78/13
f 76/79/14 70/81/11 69/82/11 75/80/14
f 78/83/11 80/84/11 79/85/11 77/86/11
f 80/84/11 82/87/12 81/88/12 79/85/11
f 82/87/12 84/89/12 83/90/12 81/88/12
f 84/89/12 86/91/12 85/92/12 83/90/12
f 86/91/12 88/93/13 87/94/13 85/92/12
f 88/93/13 90/95/14 89/96/14 87/94/13
f 90/95/14 92/97/11 91/98/11 89/96/14
f 92/97/11 78/99/11 77/100/11 91/98/11
