{
    "asset" : {
        "generator" : "Khronos glTF Blender I/O v1.6.16",
        "version" : "2.0"
    },
    "scene" : 0,
    "scenes" : [
        {
            "name" : "Scene",
            "nodes" : [
                0,
                1,
                2,
                3,
                4
            ]
        }
    ],
    "nodes" : [
        {
            "name" : "Light",
            "rotation" : [
                0.16907575726509094,
                0.7558803558349609,
                -0.27217137813568115,
                0.570947527885437
            ],
            "translation" : [
                2.7963883876800537,
                5.903861999511719,
                0.3135538101196289
            ]
        },
        {
            "name" : "Camera",
            "rotation" : [
                0.483536034822464,
                0.33687159419059753,
                -0.20870360732078552,
                0.7804827094078064
            ],
            "translation" : [
                7.358891487121582,
                4.958309173583984,
                6.925790786743164
            ]
        },
        {
            "mesh" : 0,
            "name" : "Curve",
            "rotation" : [
                0.7071068286895752,
                0,
                0,
                0.7071067094802856
            ],
            "translation" : [
                -1.2798569202423096,
                0,
                1.3190077543258667
            ]
        },
        {
            "mesh" : 1,
            "name" : "Curve.001",
            "rotation" : [
                0.7071068286895752,
                0,
                0,
                0.7071067094802856
            ],
            "translation" : [
                -1.2798569202423096,
                0,
                1.3190077543258667
            ]
        },
        {
            "mesh" : 2,
            "name" : "Curve.002",
            "rotation" : [
                0.7071068286895752,
                0,
                0,
                0.7071067094802856
            ],
            "translation" : [
                -1.2798569202423096,
                0,
                1.3190077543258667
            ]
        }
    ],
    "materials" : [
        {
            "doubleSided" : true,
            "name" : "SVGMat",
            "pbrMetallicRoughness" : {
                "baseColorFactor" : [
                    0,
                    0,
                    0,
                    1
                ],
                "metallicFactor" : 0,
                "roughnessFactor" : 0.4000000059604645
            }
        }
    ],
    "meshes" : [
        {
            "name" : "Curve",
            "primitives" : [
                {
                    "attributes" : {
                        "POSITION" : 0,
                        "NORMAL" : 1,
                        "TEXCOORD_0" : 2
                    },
                    "indices" : 3,
                    "material" : 0
                }
            ]
        },
        {
            "name" : "Curve.001",
            "primitives" : [
                {
                    "attributes" : {
                        "POSITION" : 4,
                        "NORMAL" : 5,
                        "TEXCOORD_0" : 6
                    },
                    "indices" : 7,
                    "material" : 0
                }
            ]
        },
        {
            "name" : "Curve.002",
            "primitives" : [
                {
                    "attributes" : {
                        "POSITION" : 8,
                        "NORMAL" : 9,
                        "TEXCOORD_0" : 10
                    },
                    "indices" : 11,
                    "material" : 0
                }
            ]
        }
    ],
    "accessors" : [
        {
            "bufferView" : 0,
            "componentType" : 5126,
            "count" : 1032,
            "max" : [
                1.640305995941162,
                -2.2208878993988037,
                0
            ],
            "min" : [
                1.3603880405426025,
                -2.4431068897247314,
                -0.1984339952468872
            ],
            "type" : "VEC3"
        },
        {
            "bufferView" : 1,
            "componentType" : 5126,
            "count" : 1032,
            "type" : "VEC3"
        },
        {
            "bufferView" : 2,
            "componentType" : 5126,
            "count" : 1032,
            "type" : "VEC2"
        },
        {
            "bufferView" : 3,
            "componentType" : 5123,
            "count" : 2172,
            "type" : "SCALAR"
        },
        {
            "bufferView" : 4,
            "componentType" : 5126,
            "count" : 4158,
            "max" : [
                2.858376979827881,
                -0.16821999847888947,
                0
            ],
            "min" : [
                0.13488900661468506,
                -2.750488042831421,
                -0.1984339952468872
            ],
            "type" : "VEC3"
        },
        {
            "bufferView" : 5,
            "componentType" : 5126,
            "count" : 4158,
            "type" : "VEC3"
        },
        {
            "bufferView" : 6,
            "componentType" : 5126,
            "count" : 4158,
            "type" : "VEC2"
        },
        {
            "bufferView" : 7,
            "componentType" : 5123,
            "count" : 8808,
            "type" : "SCALAR"
        },
        {
            "bufferView" : 8,
            "componentType" : 5126,
            "count" : 416,
            "max" : [
                2.2298130989074707,
                -1.5974229574203491,
                0
            ],
            "min" : [
                2.071830987930298,
                -1.7132600545883179,
                -0.1984339952468872
            ],
            "type" : "VEC3"
        },
        {
            "bufferView" : 9,
            "componentType" : 5126,
            "count" : 416,
            "type" : "VEC3"
        },
        {
            "bufferView" : 10,
            "componentType" : 5126,
            "count" : 416,
            "type" : "VEC2"
        },
        {
            "bufferView" : 11,
            "componentType" : 5123,
            "count" : 864,
            "type" : "SCALAR"
        }
    ],
    "bufferViews" : [
        {
            "buffer" : 0,
            "byteLength" : 12384,
            "byteOffset" : 0
        },
        {
            "buffer" : 0,
            "byteLength" : 12384,
            "byteOffset" : 12384
        },
        {
            "buffer" : 0,
            "byteLength" : 8256,
            "byteOffset" : 24768
        },
        {
            "buffer" : 0,
            "byteLength" : 4344,
            "byteOffset" : 33024
        },
        {
            "buffer" : 0,
            "byteLength" : 49896,
            "byteOffset" : 37368
        },
        {
            "buffer" : 0,
            "byteLength" : 49896,
            "byteOffset" : 87264
        },
        {
            "buffer" : 0,
            "byteLength" : 33264,
            "byteOffset" : 137160
        },
        {
            "buffer" : 0,
            "byteLength" : 17616,
            "byteOffset" : 170424
        },
        {
            "buffer" : 0,
            "byteLength" : 4992,
            "byteOffset" : 188040
        },
        {
            "buffer" : 0,
            "byteLength" : 4992,
            "byteOffset" : 193032
        },
        {
            "buffer" : 0,
            "byteLength" : 3328,
            "byteOffset" : 198024
        },
        {
            "buffer" : 0,
            "byteLength" : 1728,
            "byteOffset" : 201352
        }
    ],
    "buffers" : [
        {
            "byteLength" : 203080,
            "uri" : "data:application/octet-stream;base64,"
        }
    ]
}
